<svg xmlns="http://www.w3.org/2000/svg" viewBox="0 0 1234 802" fill="none">
  <path fill="#fff" d="M0 0h1232V800.03H0z"/>
  <path stroke="#000" stroke-width="2" stroke-linejoin="round" d="M0 0h1232V800.03H0z"/>
  <path stroke="#000" stroke-width="2" stroke-linejoin="round" d="M65.29 46.34h336.91v337.67H65.29z"/>
  <path stroke="#000" stroke-width="2" stroke-linejoin="round" d="M81.65 139.12h304.19v208.03H81.65z"/>
  <path fill="#000" d="M114.56 263.18l11.81-1q1.31 8.63 6.09 12.97 4.78 4.34 11.53 4.34 8.13 0 13.75-6.12t5.63-16.25q0-9.62-5.41-15.19-5.41-5.56-14.16-5.56-5.44 0-9.81 2.47-4.37 2.47-6.87 6.41l-10.56-1.37 8.88-47.06h45.56v10.75h-36.56l-4.94 24.63q8.25-5.75 17.31-5.75 12 0 20.25 8.31 8.25 8.31 8.25 21.38 0 12.44-7.25 21.5-8.81 11.13-24.06 11.13-12.5 0-20.41-7-7.91-7-9.03-18.56zm77.44-29.56v-12.81h12.81v12.81h-12.81zm0 53.56v-12.81h12.81v12.81h-12.81zm29.31-45.19q0-16.25 3.34-26.16 3.34-9.91 9.94-15.28 6.59-5.37 16.59-5.37 7.38 0 12.94 2.97 5.56 2.97 9.19 8.56 3.63 5.59 5.69 13.63 2.06 8.03 2.06 21.66 0 16.13-3.31 26.03-3.31 9.91-9.91 15.31-6.59 5.41-16.66 5.41-13.25 0-20.81-9.5-9.06-11.44-9.06-37.25zm11.56 0q0 22.56 5.28 30.03 5.28 7.47 13.03 7.47 7.75 0 13.03-7.5 5.28-7.5 5.28-30 0-22.62-5.28-30.06-5.28-7.44-13.16-7.44-7.75 0-12.37 6.56-5.81 8.38-5.81 30.94zm59.63 0q0-16.25 3.34-26.16 3.34-9.91 9.94-15.28 6.59-5.37 16.59-5.37 7.38 0 12.94 2.97 5.56 2.97 9.19 8.56 3.63 5.59 5.69 13.63 2.06 8.03 2.06 21.66 0 16.13-3.31 26.03-3.31 9.91-9.91 15.31-6.59 5.41-16.66 5.41-13.25 0-20.81-9.5-9.06-11.44-9.06-37.25zm11.56 0q0 22.56 5.28 30.03 5.28 7.47 13.03 7.47 7.75 0 13.03-7.5 5.28-7.5 5.28-30 0-22.62-5.28-30.06-5.28-7.44-13.16-7.44-7.75 0-12.37 6.56-5.81 8.38-5.81 30.94z"/>
  <path stroke="#000" stroke-width="2" stroke-linejoin="round" d="M457.33 422.87h336.91v337.67H457.33z"/>
  <path stroke="#000" stroke-width="2" stroke-linejoin="round" d="M843.65 45.71h336.91v337.67H843.65z"/>
  <path stroke="#000" stroke-width="2" stroke-linejoin="round" d="M183.89 65.91h106.65v63.4H183.89z"/>
  <path stroke="#000" stroke-width="2" stroke-linejoin="round" d="M308.15 97.61c0-17.51 15.07-31.7 33.65-31.7 8.93 0 17.49 3.34 23.8 9.29 6.31 5.95 9.86 14.01 9.86 22.42 0 17.51-15.07 31.7-33.65 31.7-18.59 0-33.65-14.19-33.65-31.7z"/>
  <path stroke="#000" stroke-width="2" stroke-linejoin="round" d="M457.69 46.15h335.16v339.7H457.69z"/>
  <path stroke="#000" stroke-width="2" stroke-linejoin="round" d="M469.59 111.95H693.8V348.7H469.59z"/>
  <path fill="#000" d="M724.67 150.96h46.03V348.71h-46.03z"/>
  <path stroke="#000" stroke-width="2" stroke-linejoin="round" d="M724.67 150.96h46.03V348.71h-46.03z"/>
  <path stroke="#000" stroke-width="2" stroke-linejoin="round" d="M733.9 81.14c0-8.43 6.93-15.26 15.48-15.26 4.11 0 8.04 1.61 10.94 4.47a15.15 15.15 0 0 1 4.53 10.79c0 8.43-6.93 15.26-15.48 15.26-8.55 0-15.48-6.83-15.48-15.26z"/>
  <path stroke="#000" stroke-width="2" stroke-linejoin="round" d="M484.03 230.32c0-55.28 43.73-100.09 97.66-100.09 25.9 0 50.74 10.55 69.06 29.32 18.32 18.77 28.61 44.23 28.61 70.78 0 55.28-43.72 100.09-97.66 100.09-53.94 0-97.66-44.81-97.66-100.09z"/>
  <path stroke="#000" stroke-linejoin="round" d="M493.39 136.92H670.39v186.82H493.39z"/>
  <path stroke="#000" stroke-linejoin="round" d="M470.25 113.68l23.34 23.19"/>
  <path stroke="#000" stroke-linejoin="round" d="M670.6 323.73l22.97 24.43"/>
  <path stroke="#000" stroke-linejoin="round" d="M693.54 113.68l-22.53 23.19"/>
  <path stroke="#000" stroke-linejoin="round" d="M493.19 323.73l-22.53 23.19"/>
  <path stroke="#000" stroke-width="2" stroke-linejoin="round" d="M507.54 99.59h25.82v12.36h-25.82z"/>
  <path stroke="#000" stroke-width="2" stroke-linejoin="round" d="M632.04 99.59h25.82v12.36h-25.82z"/>
  <path stroke="#000" stroke-width="2" stroke-linejoin="round" d="M536.34 104.15h91.77v7.8h-91.77z"/>
  <path stroke="#000" stroke-width="2" stroke-linejoin="round" d="M65.29 421.07h336.91v337.67H65.29z"/>
  <path stroke="#000" stroke-width="2" stroke-linejoin="round" d="M128.61 590.36l52.57-52.57 52.57 52.57-52.57 52.57z"/>
  <path stroke="#000" stroke-width="2" stroke-linejoin="round" d="M181.47 642.47l52.57-52.57 52.57 52.57-52.57 52.57z"/>
  <path stroke="#000" stroke-width="2" stroke-linejoin="round" d="M233.75 590.36l52.57-52.57 52.57 52.57-52.57 52.57z"/>
  <path stroke="#000" stroke-width="2" stroke-linejoin="round" d="M181.47 537.34l52.57-52.57 52.57 52.57-52.57 52.57z"/>
  <path stroke="#000" stroke-width="2" stroke-linejoin="round" d="M342.94 455.85c0-8.38 6.97-15.16 15.56-15.16 4.13 0 8.08 1.6 11 4.44 2.92 2.84 4.56 6.7 4.56 10.72 0 8.38-6.97 15.17-15.56 15.17s-15.56-6.79-15.56-15.16z"/>
  <path stroke="#000" stroke-width="2" stroke-linejoin="round" d="M840.49 424.82h336.91v337.67H840.49z"/>
  <path stroke="#000" stroke-width="2" stroke-linejoin="round" d="M1118.14 459.6c0-8.37 6.97-15.16 15.56-15.16 4.13 0 8.08 1.6 11 4.44 2.92 2.84 4.56 6.7 4.56 10.72 0 8.38-6.97 15.17-15.56 15.17s-15.56-6.79-15.56-15.17z"/>
  <path stroke="#000" stroke-width="2" stroke-linejoin="round" d="M882.43 480.79h29.17v225.73h-29.16z"/>
  <path stroke="#000" stroke-width="2" stroke-linejoin="round" d="M1092.98 525.64h29.17V703.84h-29.17z"/>
  <path stroke="#000" stroke-width="2" stroke-linejoin="round" d="M897.01 513.1c10.85-2.33 19.53 12.06 30.57 13.17 24.49 2.45 49.26-2.85 73.83-1.41 11.69.69 20.14 12.75 31.51 15.52 25.01 6.1 50.7 9.06 76.18 12.7"/>
  <path stroke="#000" stroke-width="2" stroke-linejoin="round" d="M900.77 549.31c24.47-11.12 52.6 13.95 79.47 13.64 23.98-0.28 49.31-7.9 71.95 0 18.93 6.6 43.67 30.64 57.84 16.46"/>
  <path stroke="#000" stroke-width="2" stroke-linejoin="round" d="M897.48 582.23c13.59-1.78 28.33-9.68 40.91-4.23 8.55 3.7 7.23 21.33 16.46 22.57 30.33 4.09 61.22-1.6 91.7-4.23 21.87-1.89 43.42 8 65.37 8"/>
  <path stroke="#000" stroke-width="2" stroke-linejoin="round" d="M896.54 609.51c14.41-0.97 29.28-5.96 43.27-2.35 11.18 2.89 21.44 9.52 32.92 10.82 22.41 2.53 45.29 2.38 67.25 7.53 11.84 2.78 21.63 5.82 29.16 6.11 13.79.53 29.04-7.59 41.38-1.41"/>
  <path stroke="#000" stroke-width="2" stroke-linejoin="round" d="M896.54 681.46c9.03 12.4 31.7 12.57 45.62 6.11 10.12-4.7 18-16.46 29.16-16.46 9.07 0 18.35 1.41 26.81 4.7 6.32 2.46 4.52 16.4 11.29 16.93 32.75 2.57 66.42.92 98.29-7.05"/>
  <path stroke="#000" stroke-width="2" stroke-linejoin="round" d="M901.71 646.66c46.13-8.54 94.7 5.86 139.2 20.69 8.91 2.97 16.02-11.53 25.39-12.22 14.26-1.05 28.5 2.82 42.8 2.82"/>
  <path fill="#000" d="m643.72 207.86h-12.29v3.07h8.11v38.78h-8.11v3.07h12.29zm-53.62 9.41h31.34v6.05h4.56v-10.27h-16.66c-0.67-1.58-1.87-3.55-3.07-5.14l-4.37 1.39c0.77 1.1 1.54 2.5 2.16 3.74h-18.34v10.27h4.37zm36.34 16.61h-18.19v-1.3c4.08-2.35 8.11-5.47 11.04-8.45l-3.02-2.3-1.01 0.24h-21.98v4.13h17.47c-2.16 1.82-4.8 3.7-7.25 4.9v2.78H585.3v4.27h18.19v8.83c0 0.67-0.29 0.91-1.15 0.91-0.91 0.05-4.22 0.05-7.25-0.05 0.72 1.15 1.63 3.17 1.92 4.46 3.94 0 6.72-0.05 8.64-0.77 1.97-0.67 2.59-1.92 2.59-4.42v-8.98h18.19zm-59.33-13.01c-2.16 5.9-5.14 10.8-9.02 14.83-4.08-4.22-7.3-9.17-9.6-14.83zm12.43 0v-4.32h-21.55l4.27-1.34c-0.62-1.97-2.16-5.04-3.55-7.3l-4.7 1.39c1.3 2.26 2.64 5.28 3.22 7.25h-20.78v4.32h7.39c2.69 7.01 6.24 13.01 10.9 17.95-5.09 4.18-11.38 7.15-19.1 9.22 0.91 1.06 2.26 3.12 2.78 4.27 7.78-2.4 14.3-5.76 19.63-10.27 5.18 4.51 11.57 7.92 19.2 9.98 0.72-1.3 2.02-3.17 3.02-4.13-7.39-1.82-13.63-4.94-18.77-9.12 4.51-4.8 8.06-10.66 10.61-17.9zm-59.47 31.92h12.29v-3.07h-8.11v-38.78h8.11v-3.07h-12.29z"/>
</svg>