<svg xmlns="http://www.w3.org/2000/svg" viewBox="0 0 369 801" fill="none">
  <path d="M248.58 444.27h101.48v67.56h-101.48z" fill="#000"/>
  <path d="M248.58 444.27h101.48v67.56h-101.48z" stroke-linejoin="round" stroke-width="2" stroke="#000"/>
  <path d="M289.4 109.26h67.31v208.03h-67.31z" fill="#fff"/>
  <path d="M289.4 109.26h67.31v208.03h-67.31z" stroke-linejoin="round" stroke-width="2" stroke="#000"/>
  <path d="M5.59 165.38h47.72V273.1H5.59z" fill="#fff"/>
  <path d="M5.59 165.38h47.72V273.1H5.59z" stroke-linejoin="round" stroke-width="2" stroke="#000"/>
  <path d="M278.36 66.33h68.83c9.02 0 16.33 7.04 16.33 15.73 0 8.69-7.31 15.73-16.33 15.73h-68.83c-9.02 0-16.33-7.04-16.33-15.73 0-8.69 7.31-15.73 16.33-15.73z" fill="#fff"/>
  <path d="M278.36 66.33h68.83c9.02 0 16.33 7.04 16.33 15.73 0 8.69-7.31 15.73-16.33 15.73h-68.83c-9.02 0-16.33-7.04-16.33-15.73 0-8.69 7.31-15.73 16.33-15.73z" stroke-linejoin="round" stroke-width="2" stroke="#000"/>
  <path d="M12.58 486.21h67.31v208.03H12.58z" fill="#fff"/>
  <path d="M12.58 486.21h67.31v208.03H12.58z" stroke-linejoin="round" stroke-width="2" stroke="#000"/>
  <path d="M243.87 46.65h92.16v337.67H243.87z" fill="#fff"/>
  <path d="M243.87 46.65h92.16v337.67H243.87z" stroke-linejoin="round" stroke-width="2" stroke="#000"/>
  <path d="M22.66 122.9h79.09v181.64H22.66z" fill="#000"/>
  <path d="M22.66 122.9h79.09v181.64H22.66z" stroke-linejoin="round" stroke-width="2" stroke="#000"/>
  <path d="M22.69 66.33h68.83c9.02 0 16.33 7.04 16.33 15.73 0 8.69-7.31 15.73-16.33 15.73H22.69c-9.02 0-16.33-7.04-16.33-15.73 0-8.69 7.31-15.73 16.33-15.73z" fill="#fff"/>
  <path d="M22.69 66.33h68.83c9.02 0 16.33 7.04 16.33 15.73 0 8.69-7.31 15.73-16.33 15.73H22.69c-9.02 0-16.33-7.04-16.33-15.73 0-8.69 7.31-15.73 16.33-15.73z" stroke-linejoin="round" stroke-width="2" stroke="#000"/>
  <path d="M22.69 443.84h68.83c9.02 0 16.33 7.04 16.33 15.73s-7.31 15.73-16.33 15.73H22.69c-9.02 0-16.33-7.04-16.33-15.73 0-8.69 7.31-15.73 16.33-15.73z" fill="#fff"/>
  <path d="M22.69 443.84h68.83c9.02 0 16.33 7.04 16.33 15.73s-7.31 15.73-16.33 15.73H22.69c-9.02 0-16.33-7.04-16.33-15.73 0-8.69 7.31-15.73 16.33-15.73z" stroke-linejoin="round" stroke-width="2" stroke="#000"/>
  <path d="M31.85 46.65h54.96v337.67h-54.96z" fill="#fff"/>
  <path d="M31.85 46.65h54.96v337.67h-54.96z" stroke-linejoin="round" stroke-width="2" stroke="#000"/>
  <path d="M278.36 443.84h68.83c9.02 0 16.33 7.04 16.33 15.73s-7.31 15.73-16.33 15.73h-68.83c-9.02 0-16.33-7.04-16.33-15.73 0-8.69 7.31-15.73 16.33-15.73z" fill="#fff"/>
  <path d="M278.36 443.84h68.83c9.02 0 16.33 7.04 16.33 15.73s-7.31 15.73-16.33 15.73h-68.83c-9.02 0-16.33-7.04-16.33-15.73 0-8.69 7.31-15.73 16.33-15.73z" stroke-linejoin="round" stroke-width="2" stroke="#000"/>
  <path d="M251.85 615.34h106.65v44.82H251.85z" fill="#fff"/>
  <path d="M251.85 615.34h106.65v44.82H251.85z" stroke-linejoin="round" stroke-width="2" stroke="#000"/>
  <path d="M251.85 544.1h106.65v44.82H251.85z" fill="#fff"/>
  <path d="M251.85 544.1h106.65v44.82H251.85z" stroke-linejoin="round" stroke-width="2" stroke="#000"/>
  <path d="M251.85 689.48h106.65v44.82H251.85z" fill="#fff"/>
  <path d="M251.85 689.48h106.65v44.82H251.85z" stroke-linejoin="round" stroke-width="2" stroke="#000"/>
  <path d="M6.36 517.23h24.88" stroke-linejoin="round" stroke-width="2" stroke="#000"/>
  <path d="M6.36 569.04h24.88" stroke-linejoin="round" stroke-width="2" stroke="#000"/>
  <path d="M6.36 616.9h24.88" stroke-linejoin="round" stroke-width="2" stroke="#000"/>
  <path d="M6.36 673.98H32" stroke-linejoin="round" stroke-width="2" stroke="#000"/>
  <path d="M31.85 423.81h304.16v337.67H31.85z" fill="#fff"/>
  <path d="M31.85 423.81h304.16v337.67H31.85z" stroke-linejoin="round" stroke-width="2" stroke="#000"/>
  <path d="M56.01.94H312.61v800.03H56.01z" fill="#fff"/>
  <path d="M56.01.94H312.61v800.03H56.01z" stroke-linejoin="round" stroke-width="2" stroke="#000"/>
  <path d="M289.4 31.2v315.65h-67.56V31.2z" stroke-linejoin="round" stroke-width="2" stroke="#000"/>
  <path fill="#000" transform="rotate(90)" d="m274.85-278.09h-12.29v3.07h8.11v38.78h-8.11v3.07h12.29zm-27.31 11.81h-21.26v-5.62h21.26zm4.7-9.5h-30.38v13.39h30.38zm5.57 21.17v-4.08h-41.76v4.08h9.46c-0.96 3.02-2.11 6.34-3.07 8.64h24.62c-0.72 4.61-1.63 6.96-2.69 7.78-0.58 0.43-1.2 0.48-2.3 0.48-1.34 0-4.85-0.05-8.11-0.38 0.82 1.25 1.44 2.98 1.54 4.27 3.26 0.19 6.38 0.19 8.16 0.1 1.97-0.1 3.26-0.38 4.56-1.54 1.73-1.49 2.88-5.09 3.94-12.82 0.14-0.62 0.24-1.92 0.24-1.92H229.01c0.53-1.49 1.01-3.07 1.49-4.61zm-89.86-16.37h7.1c-1.58 6.96-4.13 13.34-7.78 17.47 0.96 0.72 2.78 2.21 3.41 3.07 2.21-2.74 4.13-6.19 5.66-10.13h9.98c-0.82 3.94-2.06 7.49-3.7 10.61-1.73-1.58-4.37-3.55-6.38-4.9l-2.54 3.31c2.11 1.63 4.8 3.79 6.48 5.47-3.02 4.27-7.01 7.25-11.57 9.07 0.96 0.86 2.11 2.59 2.69 3.74 10.46-4.75 17.57-14.16 19.92-30.72l-2.78-0.86-0.82 0.14h-9.79c0.62-2.02 1.25-4.13 1.73-6.29h12.82v-4.27h-24.43zm31.68-1.34h-4.42v26.93h4.42zm5.42-4.99v38.26c0 0.77-0.29 1.01-1.1 1.06-0.72 0-3.26 0-5.81-0.05 0.58 1.15 1.25 3.12 1.44 4.27 3.79 0.05 6.24-0.1 7.78-0.82 1.58-0.67 2.16-1.87 2.16-4.51v-38.21zm-46.51 23.86h-7.87l0.38-0.38c-0.82-0.53-1.87-1.06-3.02-1.63 3.84-2.21 7.63-5.18 10.37-8.02l-2.88-2.21-0.96 0.24h-23.42v3.6h19.54c-1.92 1.63-4.22 3.31-6.38 4.51-2.3-1.06-4.7-2.11-6.72-2.98l-2.69 2.64c2.69 1.15 6 2.78 8.83 4.22h-15.07v3.79h14.02v11.14c0 0.67-0.24 0.86-1.15 0.91-0.91 0.05-4.22 0.05-7.39-0.1 0.58 1.2 1.25 2.93 1.44 4.13 4.22 0 7.2 0.05 9.07-0.62 1.97-0.62 2.5-1.78 2.5-4.22v-11.23h8.69c-1.25 1.97-2.69 3.94-3.94 5.38l3.5 1.63c2.3-2.45 4.85-6.24 7.06-9.74l-3.17-1.3zm-12.19-19.06c-0.62-1.54-1.68-3.74-2.59-5.42l-4.37 1.2c0.62 1.25 1.34 2.88 1.87 4.22h-18.48v13.06c0 6.96-0.34 16.7-4.22 23.52 0.96 0.48 2.98 1.73 3.7 2.5 4.18-7.3 4.9-18.48 4.9-25.97v-8.98h35.38v-4.13zm-43.15 39.36h12.29v-3.07h-8.11v-38.78h8.11v-3.07h-12.29z"/>
</svg>