<svg xmlns="http://www.w3.org/2000/svg" viewBox="0 0 288 115" fill="none">
  <path fill="#fff" d="M12 8.50h264v98.99H12z"/>
  <path d="m12 8.5l264 0 0 98.99 -264 0z" stroke="#000" stroke-width="2" stroke-linejoin="round"/>
  <path d="m114 32l145.01 0 0 53.98 -145.01 0z" fill="#000"/>
  <path d="m114 32l145.01 0 0 53.98 -145.01 0z" stroke="#000" stroke-width="2" stroke-linejoin="round"/>
  <path d="m36 58l0 0c0-14.91 12.08-26.99 26.99-26.99l0 0c7.16 0 14.02 2.84 19.09 7.91 5.06 5.06 7.91 11.93 7.91 19.09l0 0c0 14.91-12.08 26.99-26.99 26.99l0 0c-14.91 0-26.99-12.08-26.99-26.99z" stroke="#000" stroke-width="2" stroke-linejoin="round"/>
  <path d="m232.87 42.14h-9.22v2.3h6.08v29.09h-6.08v2.3h9.22zm-40.21 7.06h23.51v4.54h3.42v-7.7h-12.49c-.5-1.19-1.4-2.66-2.3-3.85l-3.28 1.04c.58 .83 1.15 1.87 1.62 2.81h-13.75v7.7h3.28zm27.25 12.46h-13.64v-.97c3.06-1.76 6.08-4.1 8.28-6.34l-2.27-1.73-.76 .18h-16.49v3.1h13.1c-1.62 1.37-3.6 2.77-5.44 3.67v2.09h-13.64v3.2h13.64v6.62c0 .5-.22 .68-.86 .68-.68 .04-3.17 .04-5.44-.04 .54 .86 1.22 2.38 1.44 3.35 2.95 0 5.04-.04 6.48-.58 1.48-.5 1.94-1.44 1.94-3.31v-6.73h13.64zm-44.5-9.76c-1.62 4.43-3.85 8.1-6.77 11.12-3.06-3.17-5.47-6.88-7.2-11.12zm9.32 0v-3.24h-16.16l3.2-1.01c-.47-1.48-1.62-3.78-2.66-5.47l-3.53 1.04c.97 1.69 1.98 3.96 2.41 5.44h-15.59v3.24h5.54c2.02 5.26 4.68 9.76 8.17 13.46-3.82 3.13-8.53 5.36-14.33 6.91 .68 .79 1.69 2.34 2.09 3.2 5.83-1.8 10.73-4.32 14.72-7.7 3.89 3.38 8.68 5.94 14.4 7.49 .54-.97 1.51-2.38 2.27-3.1-5.54-1.37-10.22-3.71-14.08-6.84 3.38-3.6 6.05-7.99 7.96-13.43zm-44.6 23.94h9.22v-2.3h-6.08v-29.09h6.08v-2.3h-9.22z" fill="#fff"/>
</svg>