<svg xmlns="http://www.w3.org/2000/svg" fill="none" viewBox="0 0 604 348">  
  <path d="M114.36 0h357.29v347.97H114.36V0z" fill="#fff" fill-rule="nonzero"/>
  <path d="m125.44 5.78l336.91 0 0 337.67 -336.91 0z" stroke-linejoin="round" stroke-width="2" stroke="#000"/>
  <path d="m403.09 40.55l0 0c0-8.38 6.97-15.17 15.56-15.17l0 0c4.13 0 8.08 1.6 11 4.44 2.92 2.84 4.56 6.7 4.56 10.72l0 0c0 8.38-6.97 15.17-15.56 15.17l0 0c-8.59 0-15.56-6.79-15.56-15.17z" stroke-linejoin="round" stroke-width="2" stroke="#000"/>
  <path d="m241.62 122.04l52.57-52.57 52.57 52.57 -52.57 52.57z" stroke-linejoin="round" stroke-width="2" stroke="#000"/>
  <path d="m188.76 175.07l52.57-52.57 52.57 52.57 -52.57 52.57z" stroke-linejoin="round" stroke-width="2" stroke="#000"/>
  <path d="m241.62 227.18l52.57-52.57 52.57 52.57 -52.57 52.57z" stroke-linejoin="round" stroke-width="2" stroke="#000"/>
  <path d="m293.9 175.07l52.57-52.57 52.57 52.57 -52.57 52.57z" stroke-linejoin="round" stroke-width="2" stroke="#000"/>
  <path fill-rule="evenodd" d="m108.35 256.33l142.65 0" stroke-linejoin="round" stroke-width="2" stroke="#000"/>
  <path fill-rule="evenodd" d="m251 259.63l9.08-3.3 -9.08-3.3z" stroke-width="2" stroke="#000" fill="#000"/>
  <path fill-rule="evenodd" d="m478.65 91.7l-134.43 0" stroke-linejoin="round" stroke-width="2" stroke="#000"/>
  <path fill-rule="evenodd" d="m344.23 88.39l-9.08 3.3 9.08 3.3z" stroke-width="2" stroke="#000" fill="#000"/>
  <path fill-rule="evenodd" d="m478.65 174.61l-56.47 0" stroke-linejoin="round" stroke-width="2" stroke="#000"/>
  <path fill-rule="evenodd" d="m422.18 171.31l-9.08 3.3 9.08 3.3z" stroke-width="2" stroke="#000" fill="#000"/>
  <path fill-rule="evenodd" d="m107.36 175.07l60.19 0" stroke-linejoin="round" stroke-width="2" stroke="#000"/>
  <path fill-rule="evenodd" d="m167.55 178.37l9.08-3.3 -9.08-3.3z" stroke-width="2" stroke="#000" fill="#000"/>
  <path d="m537.36 82.03c-.67 1.47-1.66 3.49-2.59 4.77h-7.1l-1.18-.48c1.28-1.38 2.46-2.82 3.52-4.29zm6.18 5.66v6.91h-7.01v-6.91zm-16.26 0h6.75v6.91h-6.75zm21.12 10.56h-.42c-.45 1.63-1.15 3.87-1.6 4.58-.54 .8-1.44 .93-3.55 .93h-12.35c-2.11 0-3.2-.26-3.2-1.5v-6.72h16.26v2.11h.38c.9 0 2.18-.54 2.21-.77v-8.67c.64-.13 1.15-.42 1.38-.7l-2.94-2.21-1.34 1.5h-7.71c1.76-1.18 3.65-3.14 4.86-4.45 .67-.03 1.06-.1 1.28-.35l-2.72-2.43-1.57 1.54h-6.75c.54-.8 1.02-1.6 1.44-2.4 .83 .06 1.12-.1 1.25-.45l-3.9-.99c-1.73 4.74-5.34 10.34-9.12 13.47l.38 .38c1.41-.83 2.78-1.89 4.06-3.07v14.14c0 3.1 1.98 3.97 5.95 3.97h12.38c5.7 0 7.01-.77 7.01-2.02 0-.58-.38-.7-1.63-1.06zm-51.52-16.64v2.82h.38c.99 0 1.98-.32 1.98-.61v-2.21h8.19v2.53l-1.92-.61c-.83 4.06-2.37 8.29-3.94 10.98l.45 .29c1.7-1.6 3.26-3.81 4.51-6.3h9.73c.45 0 .8-.16 .86-.51-1.06-1.06-2.82-2.56-2.82-2.56l-1.57 2.11h-5.73c.35-.74 .67-1.44 .96-2.21 .67 0 1.02-.26 1.15-.64l-1.18-.38c1.09-.03 1.89-.38 1.89-.61v-2.08h7.62c.42 0 .74-.16 .8-.51-1.02-1.02-2.88-2.43-2.88-2.43l-1.57 1.98h-3.97v-2.24c.8-.1 1.06-.42 1.12-.86l-3.52-.32v3.42h-8.19v-2.24c.8-.1 1.09-.42 1.12-.86l-3.49-.32v3.42h-8.29l.22 .96zm10.69 7.94c1.15 1.22 2.4 3.23 2.59 4.93 2.34 1.73 4.38-3.2-2.24-5.15zm-9.38 6.27h.42c.9 0 1.95-.48 1.95-.77v-9.34c.83-.13 1.12-.42 1.18-.86l-3.55-.38zm-5.44-1.25c.86 0 1.89-.45 1.89-.7v-7.1c.83-.13 1.12-.42 1.22-.9l-3.52-.32v9.06zm1.7 3.04h4.16v7.1h-4.16zm10.88 0v7.1h-4.32v-7.1zm6.56 0v7.1h-4.16v-7.1zm2.78 7.1h-.26v-6.91c.48-.1 .83-.29 .99-.48l-2.5-1.89-1.25 1.25h-16.8l-2.88-1.18v9.22h-3.26l.29 .93h28.54c.45 0 .77-.16 .83-.51-.9-.96-2.4-2.3-2.4-2.3z" fill="#000"/>
  <path d="m85.45 165.39c-.67 1.47-1.66 3.49-2.59 4.77h-7.1l-1.18-.48c1.28-1.38 2.46-2.82 3.52-4.29zm6.18 5.66v6.91h-7.01v-6.91zm-16.26 0h6.75v6.91h-6.75zm21.12 10.56h-.42c-.45 1.63-1.15 3.87-1.6 4.58-.54 .8-1.44 .93-3.55 .93h-12.35c-2.11 0-3.2-.26-3.2-1.5v-6.72h16.26v2.11h.38c.9 0 2.18-.54 2.21-.77v-8.67c.64-.13 1.15-.42 1.38-.7l-2.94-2.21-1.34 1.5h-7.71c1.76-1.18 3.65-3.14 4.86-4.45 .67-.03 1.06-.1 1.28-.35l-2.72-2.43-1.57 1.54h-6.75c.54-.8 1.02-1.6 1.44-2.4 .83 .06 1.12-.1 1.25-.45l-3.9-.99c-1.73 4.74-5.34 10.34-9.12 13.47l.38 .38c1.41-.83 2.78-1.89 4.06-3.07v14.14c0 3.1 1.98 3.97 5.95 3.97h12.38c5.7 0 7.01-.77 7.01-2.02 0-.58-.38-.7-1.63-1.06zm-58.24-.03c.26-.1 .51-.32 .74-.61 4.35-1.38 8.13-2.82 10.21-3.58l-.06-.48c-3.55 .54-7.1 1.02-9.57 1.28 3.52-2.66 7.46-6.53 9.47-9.31 .64 .13 1.06-.06 1.22-.35l-3.33-2.05c-.48 1.02-1.25 2.24-2.11 3.55-2.27 .13-4.42 .19-5.98 .22 2.3-1.95 4.99-4.93 6.46-7.07 .64 .06 1.02-.19 1.15-.48l-3.58-1.66c-.83 2.4-3.26 6.94-5.18 8.67-.22 .19-.86 .32-.86 .32l1.28 3.33c.19-.1 .38-.22 .54-.42 1.98-.54 3.84-1.15 5.34-1.66-1.89 2.56-4.16 5.22-6.02 6.69-.26 .16-.99 .32-.99 .32zm11.39 .67c-5.09 1.41-10.34 2.72-12.61 3.17l1.5 3.36c.32-.13 .64-.45 .77-.83 4.67-2.08 8.03-3.94 10.46-5.31zm12.22 5.25h-4.06v-21.54h7.1c.45 0 .77-.16 .83-.51-1.12-1.09-2.98-2.56-2.98-2.56l-1.63 2.11h-12.45l.26 .96h6.21v21.54h-8.74l.26 .93h19.04c.42 0 .74-.16 .83-.51-1.12-1.09-3.04-2.59-3.04-2.59z" fill="#000"/>
  <path d="m537.45 164.53c-.67 1.47-1.66 3.49-2.59 4.77h-7.1l-1.18-.48c1.28-1.38 2.46-2.82 3.52-4.29zm6.18 5.66v6.91h-7.01v-6.91zm-16.26 0h6.75v6.91h-6.75zm21.12 10.56h-.42c-.45 1.63-1.15 3.87-1.6 4.58-.54 .8-1.44 .93-3.55 .93h-12.35c-2.11 0-3.2-.26-3.2-1.5v-6.72h16.26v2.11h.38c.9 0 2.18-.54 2.21-.77v-8.67c.64-.13 1.15-.42 1.38-.7l-2.94-2.21-1.34 1.5h-7.71c1.76-1.18 3.65-3.14 4.86-4.45 .67-.03 1.06-.1 1.28-.35l-2.72-2.43-1.57 1.54h-6.75c.54-.8 1.02-1.6 1.44-2.4 .83 .06 1.12-.1 1.25-.45l-3.9-.99c-1.73 4.74-5.34 10.34-9.12 13.47l.38 .38c1.41-.83 2.78-1.89 4.06-3.07v14.14c0 3.1 1.98 3.97 5.95 3.97h12.38c5.7 0 7.01-.77 7.01-2.02 0-.58-.38-.7-1.63-1.06zm-59.74 8.7c4.32-.64 8.96-2.05 11.74-3.39 .86 .22 1.41 .16 1.63-.16l-3.1-2.18c-2.14 1.73-6.56 4.03-10.43 5.25zm17.15-4.64c4.19 1.12 7.04 2.72 8.7 4.13 2.59 1.95 6.66-3.46-8.58-4.64zm-5.47-20.19h6.11v3.81h-6.11zm10.69 8.45v3.68h-6.43v-3.68zm-6.43 8.58v-3.97h6.43v3.97zm-8.7-3.97h6.14v3.97h-6.14zm6.14-4.61v3.68h-6.14v-3.68zm11.33-4.64h-4.35v-3.81h6.59c.45 0 .77-.16 .86-.51-1.18-1.06-3.07-2.5-3.07-2.5l-1.7 2.05h-2.69v-2.5c.8-.1 1.09-.42 1.15-.86l-3.71-.35v3.71h-6.11v-2.5c.83-.1 1.12-.42 1.18-.86l-3.71-.35v3.71h-6.82l.29 .96h6.53v3.81h-8.96l.29 .9h12.9v2.85h-5.95l-2.75-1.22v13.38h.42c1.09 0 2.14-.58 2.14-.83v-.96h15.14v1.28h.35c.86 0 2.18-.51 2.21-.7v-9.57c.67-.13 1.12-.42 1.34-.67l-2.91-2.21-1.31 1.5h-6.11v-2.85h12.83c.42 0 .77-.13 .83-.48-1.18-1.09-3.17-2.59-3.17-2.59z" fill="#000"/>
  <path d="m85.45 246.23c-.67 1.47-1.66 3.49-2.59 4.77h-7.1l-1.18-.48c1.28-1.38 2.46-2.82 3.52-4.29zm6.18 5.66v6.91h-7.01v-6.91zm-16.26 0h6.75v6.91h-6.75zm21.12 10.56h-.42c-.45 1.63-1.15 3.87-1.6 4.58-.54 .8-1.44 .93-3.55 .93h-12.35c-2.11 0-3.2-.26-3.2-1.5v-6.72h16.26v2.11h.38c.9 0 2.18-.54 2.21-.77v-8.67c.64-.13 1.15-.42 1.38-.7l-2.94-2.21-1.34 1.5h-7.71c1.76-1.18 3.65-3.14 4.86-4.45 .67-.03 1.06-.1 1.28-.35l-2.72-2.43-1.57 1.54h-6.75c.54-.8 1.02-1.6 1.44-2.4 .83 .06 1.12-.1 1.25-.45l-3.9-.99c-1.73 4.74-5.34 10.34-9.12 13.47l.38 .38c1.41-.83 2.78-1.89 4.06-3.07v14.14c0 3.1 1.98 3.97 5.95 3.97h12.38c5.7 0 7.01-.77 7.01-2.02 0-.58-.38-.7-1.63-1.06zm-58.66-.38c.26-.1 .48-.29 .7-.61 3.49-1.22 6.66-2.53 8.38-3.26l-.06-.42c-2.94 .45-5.92 .86-8 1.12 3.04-2.69 6.37-6.62 8.13-9.38 .64 .13 1.06-.1 1.22-.42l-3.26-1.89c-.42 .99-1.02 2.27-1.76 3.55-1.79 .13-3.58 .26-4.9 .29 2.08-2.02 4.42-5.09 5.73-7.36 .64 .06 .99-.22 1.15-.51l-3.49-1.41c-.7 2.4-2.78 6.94-4.45 8.77-.22 .16-.86 .29-.86 .29l1.28 3.1c.19-.06 .38-.19 .54-.35 1.54-.54 3.07-1.12 4.29-1.6-1.54 2.53-3.42 5.12-4.96 6.56-.26 .22-.96 .35-.96 .35zm9.34 .38c-4.26 1.66-8.7 3.17-10.69 3.71l1.76 3.1c.35-.16 .58-.51 .64-.9 3.74-2.21 6.5-4.16 8.42-5.5zm14.91-7.33c-.54 1.12-1.73 3.14-2.82 4.77-1.02-1.57-1.82-3.46-2.34-5.82h8.77c.42 0 .7-.16 .77-.51-.99-1.02-2.72-2.5-2.72-2.5l-1.5 2.05h-.83l.42-8.38c.58-.06 .86-.16 1.09-.42l-2.56-2.05-1.18 1.28h-11.17l.29 .93h11.17l-.22 3.78h-10.24l.29 .93h9.92l-.19 3.94h-12.64l.26 .96h7.58v7.01c-3.74 2.18-7.39 4.16-8.99 4.9l2.08 2.56c.29-.19 .48-.54 .51-.96 2.69-2.24 4.83-4.19 6.4-5.7v6.08c0 .42-.1 .58-.64 .58-.54 0-3.14-.19-3.14-.19v.48c1.25 .16 1.92 .45 2.3 .8 .38 .35 .48 .9 .54 1.57 2.94-.26 3.36-1.38 3.36-3.17v-13.38c1.25 7.52 3.84 11.1 7.87 13.92 .32-1.25 1.09-2.14 2.11-2.4l.06-.35c-2.59-1.09-5.09-2.66-7.01-5.31 1.6-1.02 3.3-2.24 4.16-3.07 .61 .19 1.06-.03 1.22-.29zm-14.75 .67c1.18 1.22 2.43 3.26 2.62 4.93 2.14 1.79 4.29-2.85-2.27-5.15z" fill="#000"/>
</svg>