<svg xmlns="http://www.w3.org/2000/svg" viewBox="0 0 348 348" fill="none">
  <path fill="#fff" d="M-6 0h348v347.97H-6z"/>
  <path stroke="#000" stroke-width="2" stroke-linejoin="round" d="m5.08 5.78l336.91 0 0 337.67 -336.91 0z"/>
  <path stroke="#000" stroke-width="2" stroke-linejoin="round" d="m282.73 40.55l0 0c0-8.38 6.97-15.17 15.56-15.17l0 0c4.13 0 8.08 1.6 11 4.44 2.92 2.84 4.56 6.7 4.56 10.72l0 0c0 8.38-6.97 15.17-15.56 15.17l0 0c-8.59 0-15.56-6.79-15.56-15.17z"/>
  <path fill="#000" d="m34.77 25.39l232.41 0 0 67.56 -232.41 0z"/>
  <path stroke="#000" stroke-width="2" stroke-linejoin="round" d="m34.77 25.39l232.41 0 0 67.56 -232.41 0z"/>
  <path stroke="#000" stroke-width="1" stroke-linejoin="round" d="m34.77 202.32l106.65 0 0 44.82 -106.65 0z"/>
  <path stroke="#000" stroke-width="1" stroke-linejoin="round" d="m34.77 125.23l106.65 0 0 44.82 -106.65 0z"/>
  <path stroke="#000" stroke-width="1" stroke-linejoin="round" d="m34.77 270.6l106.65 0 0 44.82 -106.65 0z"/>
  <path stroke="#000" stroke-width="1" stroke-linejoin="round" d="m157.41 202.32l106.65 0 0 44.82 -106.65 0z"/>
  <path stroke="#000" stroke-width="1" stroke-linejoin="round" d="m157.41 125.23l106.65 0 0 44.82 -106.65 0z"/>
  <path stroke="#000" stroke-width="1" stroke-linejoin="round" d="m157.41 270.6l106.65 0 0 44.82 -106.65 0z"/>
  <path fill="#000" d="m277.46 106.38l52.66 0 0 209.04 -52.66 0z"/>
  <path stroke="#000" stroke-width="2" stroke-linejoin="round" d="m277.46 106.38l52.66 0 0 209.04 -52.66 0z"/>
  <path fill="#fff" d="m290.06 245.11l27.46 0 0 16.47 -27.46 0z"/>
  <path stroke="#000" stroke-width="2" stroke-linejoin="round" d="m290.06 245.11l27.46 0 0 16.47 -27.46 0z"/>
  <path fill="#fff" d="m290.06 208.9l27.46 0 0 16.47 -27.46 0z"/>
  <path stroke="#000" stroke-width="2" stroke-linejoin="round" d="m290.06 208.9l27.46 0 0 16.47 -27.46 0z"/>
  <path fill="#fff" d="m290.06 281.32l27.46 0 0 16.47 -27.46 0z"/>
  <path stroke="#000" stroke-width="2" stroke-linejoin="round" d="m290.06 281.32l27.46 0 0 16.47 -27.46 0z"/>
  <path d="m233.34 42.32h-9.22v2.3h6.08v29.09h-6.08v2.3h9.22zm-40.1 6.48h23.36v3.96h3.38v-6.98h-12.49c-.43-1.08-1.12-2.41-1.73-3.42l-3.46 .76c.43 .83 .86 1.76 1.22 2.66h-13.57v6.98h3.28zm14.4 3.2c3.24 2.02 7.2 5.04 9.07 7.02l2.41-2.16c-1.98-2.02-6.05-4.9-9.18-6.77zm-8.86-1.94c-1.94 2.56-5.22 5-8.39 6.52 .68 .58 1.84 1.91 2.3 2.52 3.28-1.84 6.91-4.82 9.22-7.96zm-.22 13.57c2.41-1.69 4.64-3.67 6.52-5.83 2.2 2.34 4.46 4.21 6.98 5.83zm-.43 7.99v-5.04h13.61v5.04zm6.41-18.32c-3.35 5.33-9.58 9.61-16.16 11.95 .76 .72 1.66 1.87 2.12 2.7 1.48-.58 2.95-1.3 4.36-2.05v9.79h3.28v-1.12h13.61v1.01h3.42v-10.12c1.33 .68 2.74 1.4 4.18 2.02 .47-.94 1.37-2.05 2.16-2.77-5.69-2.12-10.62-4.86-14.65-9.25 .22-.29 .43-.58 .61-.9zm-21.02-4.61h-12.78v-6.05h-3.46v6.05h-12.74v27.07h3.35v-23.83h9.36c-.18 4.61-1.4 10.22-8.89 14.18 .79 .61 1.94 1.8 2.38 2.52 4.43-2.59 6.95-5.76 8.35-9.04 2.99 2.88 6.19 6.26 7.85 8.46l2.74-2.2c-2.09-2.56-6.23-6.52-9.54-9.5 .32-1.55 .5-3.02 .58-4.43h9.5v19.62c0 .65-.22 .83-.9 .86-.68 .04-3.13 .04-5.47-.07 .47 .9 1.01 2.45 1.15 3.38 3.17 0 5.4-.04 6.73-.61 1.33-.54 1.8-1.55 1.8-3.53zm-41.98 1.4h-17.17v-3.13h17.17zm0 5.65h-17.17v-3.13h17.17zm3.42-11.41h-23.87v14.04h23.87zm-2.84 24.7c1.51-1.87 3.38-4.57 4.86-7.09l-2.88-1.26c-1.04 2.2-3.06 5.22-4.57 7.13zm-16.42-1.15c-.72-1.76-2.45-4.79-3.82-6.95l-2.59 1.08c1.33 2.27 2.95 5.36 3.71 7.16zm12.74 2.95v-11.16h-3.17v11.16h-4.79v-11.16h-3.2v11.16h-10.8v3.2h32.98v-3.2zm-30.67-23.65v3.06H87.15v-3.06zm-20.63 5.9h24.19v-8.78H83.76v12.38c0 5.33-.25 12.35-3.6 17.24 .83 .36 2.3 1.33 2.92 1.87 3.56-5.18 4.07-13.32 4.07-19.12zm9.68 11.63c0-.32 0-.61 0-.94v-3.49h6.37v4.43zm16.24 0h-6.52v-4.43h5.47v-2.77h-5.62c.76-1.08 1.55-2.23 2.27-3.31l-3.56-.97c-.47 1.22-1.22 2.92-2.02 4.28h-9.58l3.1-1.08c-.43-.83-1.3-2.23-1.98-3.2l-3.06 .94c.68 1.04 1.4 2.45 1.84 3.35h-4.97v2.77h5.15v3.42c0 .32 0 .68-.04 1.01h-5.98v2.84h5.47c-.68 2.12-2.3 4.14-5.9 5.69 .72 .54 1.76 1.8 2.23 2.52 4.72-2.09 6.52-5.08 7.13-8.21h6.7v8.14h3.35v-8.14h6.52zm-44.46 11.3h9.22v-2.3h-6.08v-29.09h6.08v-2.3h-9.22z" fill="#fff"/>
  <path d="m119.01 136.4h-6.14v1.54h4.06v19.39h-4.06v1.54h6.14zm-26.81 4.7h15.67v3.02h2.28v-5.14h-8.33c-.34-.79-.94-1.78-1.54-2.57l-2.18 .7c.38 .55 .77 1.25 1.08 1.87h-9.17v5.14h2.18zm18.17 8.3h-9.1v-.65c2.04-1.18 4.06-2.74 5.52-4.22l-1.51-1.15-.5 .12h-10.99v2.06h8.74c-1.08 .91-2.4 1.85-3.62 2.45v1.39h-9.1v2.14h9.1v4.42c0 .34-.14 .46-.58 .46-.46 .02-2.11 .02-3.62-.02 .36 .58 .82 1.58 .96 2.23 1.97 0 3.36-.02 4.32-.38 .98-.34 1.3-.96 1.3-2.21v-4.49h9.1zm-29.66-6.5c-1.08 2.95-2.57 5.4-4.51 7.42-2.04-2.11-3.65-4.58-4.8-7.42zm6.22 0v-2.16h-10.78l2.14-.67c-.31-.98-1.08-2.52-1.78-3.65l-2.35 .7c.65 1.13 1.32 2.64 1.61 3.62h-10.39v2.16h3.7c1.34 3.5 3.12 6.5 5.45 8.98-2.54 2.09-5.69 3.58-9.55 4.61 .46 .53 1.13 1.56 1.39 2.14 3.89-1.2 7.15-2.88 9.82-5.14 2.59 2.26 5.78 3.96 9.6 4.99 .36-.65 1.01-1.58 1.51-2.06-3.7-.91-6.82-2.47-9.38-4.56 2.26-2.4 4.03-5.33 5.3-8.95zm-29.74 15.96h6.14v-1.54h-4.06v-19.39h4.06v-1.54h-6.14z" fill="#000"/>
  <path d="m241.64 136.4h-6.14v1.54h4.06v19.39h-4.06v1.54h6.14zm-26.81 4.7h15.67v3.02h2.28v-5.14h-8.33c-.34-.79-.94-1.78-1.54-2.57l-2.18 .7c.38 .55 .77 1.25 1.08 1.87h-9.17v5.14h2.18zm18.17 8.3h-9.1v-.65c2.04-1.18 4.06-2.74 5.52-4.22l-1.51-1.15-.5 .12h-10.99v2.06h8.74c-1.08 .91-2.4 1.85-3.62 2.45v1.39h-9.1v2.14h9.1v4.42c0 .34-.14 .46-.58 .46-.46 .02-2.11 .02-3.62-.02 .36 .58 .82 1.58 .96 2.23 1.97 0 3.36-.02 4.32-.38 .98-.34 1.3-.96 1.3-2.21v-4.49h9.1zm-29.66-6.5c-1.08 2.95-2.57 5.4-4.51 7.42-2.04-2.11-3.65-4.58-4.8-7.42zm6.22 0v-2.16h-10.78l2.14-.67c-.31-.98-1.08-2.52-1.78-3.65l-2.35 .7c.65 1.13 1.32 2.64 1.61 3.62h-10.39v2.16h3.7c1.34 3.5 3.12 6.5 5.45 8.98-2.54 2.09-5.69 3.58-9.55 4.61 .46 .53 1.13 1.56 1.39 2.14 3.89-1.2 7.15-2.88 9.82-5.14 2.59 2.26 5.78 3.96 9.6 4.99 .36-.65 1.01-1.58 1.51-2.06-3.7-.91-6.82-2.47-9.38-4.56 2.26-2.4 4.03-5.33 5.3-8.95zm-29.74 15.96h6.14v-1.54h-4.06v-19.39h4.06v-1.54h-6.14z" fill="#000"/>
  <path d="m119.01 213.5h-6.14v1.54h4.06v19.39h-4.06v1.54h6.14zm-26.81 4.7h15.67v3.02h2.28v-5.14h-8.33c-.34-.79-.94-1.78-1.54-2.57l-2.18 .7c.38 .55 .77 1.25 1.08 1.87h-9.17v5.14h2.18zm18.17 8.3h-9.1v-.65c2.04-1.18 4.06-2.74 5.52-4.22l-1.51-1.15-.5 .12h-10.99v2.06h8.74c-1.08 .91-2.4 1.85-3.62 2.45v1.39h-9.1v2.14h9.1v4.42c0 .34-.14 .46-.58 .46-.46 .02-2.11 .02-3.62-.02 .36 .58 .82 1.58 .96 2.23 1.97 0 3.36-.02 4.32-.38 .98-.34 1.3-.96 1.3-2.21v-4.49h9.1zm-29.66-6.5c-1.08 2.95-2.57 5.4-4.51 7.42-2.04-2.11-3.65-4.58-4.8-7.42zm6.22 0v-2.16h-10.78l2.14-.67c-.31-.98-1.08-2.52-1.78-3.65l-2.35 .7c.65 1.13 1.32 2.64 1.61 3.62h-10.39v2.16h3.7c1.34 3.5 3.12 6.5 5.45 8.98-2.54 2.09-5.69 3.58-9.55 4.61 .46 .53 1.13 1.56 1.39 2.14 3.89-1.2 7.15-2.88 9.82-5.14 2.59 2.26 5.78 3.96 9.6 4.99 .36-.65 1.01-1.58 1.51-2.06-3.7-.91-6.82-2.47-9.38-4.56 2.26-2.4 4.03-5.33 5.3-8.95zm-29.74 15.96h6.14v-1.54h-4.06v-19.39h4.06v-1.54h-6.14z" fill="#000"/>
  <path d="m241.64 213.5h-6.14v1.54h4.06v19.39h-4.06v1.54h6.14zm-26.81 4.7h15.67v3.02h2.28v-5.14h-8.33c-.34-.79-.94-1.78-1.54-2.57l-2.18 .7c.38 .55 .77 1.25 1.08 1.87h-9.17v5.14h2.18zm18.17 8.3h-9.1v-.65c2.04-1.18 4.06-2.74 5.52-4.22l-1.51-1.15-.5 .12h-10.99v2.06h8.74c-1.08 .91-2.4 1.85-3.62 2.45v1.39h-9.1v2.14h9.1v4.42c0 .34-.14 .46-.58 .46-.46 .02-2.11 .02-3.62-.02 .36 .58 .82 1.58 .96 2.23 1.97 0 3.36-.02 4.32-.38 .98-.34 1.3-.96 1.3-2.21v-4.49h9.1zm-29.66-6.5c-1.08 2.95-2.57 5.4-4.51 7.42-2.04-2.11-3.65-4.58-4.8-7.42zm6.22 0v-2.16h-10.78l2.14-.67c-.31-.98-1.08-2.52-1.78-3.65l-2.35 .7c.65 1.13 1.32 2.64 1.61 3.62h-10.39v2.16h3.7c1.34 3.5 3.12 6.5 5.45 8.98-2.54 2.09-5.69 3.58-9.55 4.61 .46 .53 1.13 1.56 1.39 2.14 3.89-1.2 7.15-2.88 9.82-5.14 2.59 2.26 5.78 3.96 9.6 4.99 .36-.65 1.01-1.58 1.51-2.06-3.7-.91-6.82-2.47-9.38-4.56 2.26-2.4 4.03-5.33 5.3-8.95zm-29.74 15.96h6.14v-1.54h-4.06v-19.39h4.06v-1.54h-6.14z" fill="#000"/>
  <path d="m119.01 281.78h-6.14v1.54h4.06v19.39h-4.06v1.54h6.14zm-26.81 4.7h15.67v3.02h2.28v-5.14h-8.33c-.34-.79-.94-1.78-1.54-2.57l-2.18 .7c.38 .55 .77 1.25 1.08 1.87h-9.17v5.14h2.18zm18.17 8.3h-9.1v-.65c2.04-1.18 4.06-2.74 5.52-4.22l-1.51-1.15-.5 .12h-10.99v2.06h8.74c-1.08 .91-2.4 1.85-3.62 2.45v1.39h-9.1v2.14h9.1v4.42c0 .34-.14 .46-.58 .46-.46 .02-2.11 .02-3.62-.02 .36 .58 .82 1.58 .96 2.23 1.97 0 3.36-.02 4.32-.38 .98-.34 1.3-.96 1.3-2.21v-4.49h9.1zm-29.66-6.5c-1.08 2.95-2.57 5.4-4.51 7.42-2.04-2.11-3.65-4.58-4.8-7.42zm6.22 0v-2.16h-10.78l2.14-.67c-.31-.98-1.08-2.52-1.78-3.65l-2.35 .7c.65 1.13 1.32 2.64 1.61 3.62h-10.39v2.16h3.7c1.34 3.5 3.12 6.5 5.45 8.98-2.54 2.09-5.69 3.58-9.55 4.61 .46 .53 1.13 1.56 1.39 2.14 3.89-1.2 7.15-2.88 9.82-5.14 2.59 2.26 5.78 3.96 9.6 4.99 .36-.65 1.01-1.58 1.51-2.06-3.7-.91-6.82-2.47-9.38-4.56 2.26-2.4 4.03-5.33 5.3-8.95zm-29.74 15.96h6.14v-1.54h-4.06v-19.39h4.06v-1.54h-6.14z" fill="#000"/>
  <path d="m241.64 281.78h-6.14v1.54h4.06v19.39h-4.06v1.54h6.14zm-26.81 4.7h15.67v3.02h2.28v-5.14h-8.33c-.34-.79-.94-1.78-1.54-2.57l-2.18 .7c.38 .55 .77 1.25 1.08 1.87h-9.17v5.14h2.18zm18.17 8.3h-9.1v-.65c2.04-1.18 4.06-2.74 5.52-4.22l-1.51-1.15-.5 .12h-10.99v2.06h8.74c-1.08 .91-2.4 1.85-3.62 2.45v1.39h-9.1v2.14h9.1v4.42c0 .34-.14 .46-.58 .46-.46 .02-2.11 .02-3.62-.02 .36 .58 .82 1.58 .96 2.23 1.97 0 3.36-.02 4.32-.38 .98-.34 1.3-.96 1.3-2.21v-4.49h9.1zm-29.66-6.5c-1.08 2.95-2.57 5.4-4.51 7.42-2.04-2.11-3.65-4.58-4.8-7.42zm6.22 0v-2.16h-10.78l2.14-.67c-.31-.98-1.08-2.52-1.78-3.65l-2.35 .7c.65 1.13 1.32 2.64 1.61 3.62h-10.39v2.16h3.7c1.34 3.5 3.12 6.5 5.45 8.98-2.54 2.09-5.69 3.58-9.55 4.61 .46 .53 1.13 1.56 1.39 2.14 3.89-1.2 7.15-2.88 9.82-5.14 2.59 2.26 5.78 3.96 9.6 4.99 .36-.65 1.01-1.58 1.51-2.06-3.7-.91-6.82-2.47-9.38-4.56 2.26-2.4 4.03-5.33 5.3-8.95zm-29.74 15.96h6.14v-1.54h-4.06v-19.39h4.06v-1.54h-6.14z" fill="#000"/>
</svg>