<svg xmlns="http://www.w3.org/2000/svg" viewBox="0 90 612 612">
  <path fill="none" stroke="#000" stroke-width="2" stroke-linejoin="round" d="M8.93 100.16h592.5V693.99H8.93V100.16z"/>
  <path fill="none" stroke="#000" stroke-width="2" stroke-linejoin="round" d="M497.22 161.32c0-14.73 12.25-26.67 27.36-26.67 7.26 0 14.22 2.81 19.35 7.81 5.13 5 8.02 11.79 8.02 18.86 0 14.73-12.25 26.67-27.36 26.67-15.11 0-27.36-11.94-27.36-26.67z"/>
  <path d="M84.5 176.5h331v140h-331z"/>
  <path d="M31.5 348.5h266v266h-266zm283 0h266v266h-266z" stroke-width="2" stroke="#231F20" fill="none"/>
  <path d="M129.86 495.5v-14.55l-13.24-19.8h5.53l6.77 10.36a103.98 103.98 0 0 1 3.49 5.81c1.03-1.8 2.28-3.82 3.75-6.07l6.66-10.1h5.3l-13.71 19.81V495.5h-4.55zm22.43 0v-34.36h24.84v4.06h-20.3v10.52h19.01v4.03h-19.01v11.7h21.09v4.06h-25.64zm30.38-11.04l4.29-.37c.2 1.72.68 3.13 1.42 4.23s1.9 1.99 3.46 2.67 3.32 1.02 5.27 1.02c1.73 0 3.27-.26 4.59-.77s2.32-1.22 2.97-2.12.97-1.88.97-2.94c0-1.08-.31-2.02-.94-2.82s-1.66-1.48-3.09-2.03c-.92-.36-2.96-.92-6.12-1.68s-5.37-1.47-6.63-2.14c-1.64-.86-2.86-1.93-3.67-3.2s-1.21-2.7-1.21-4.28c0-1.73.49-3.35 1.48-4.86s2.42-2.65 4.31-3.43 3.99-1.17 6.31-1.17c2.55 0 4.79.41 6.74 1.23s3.44 2.03 4.49 3.62 1.61 3.4 1.69 5.41l-4.36.33c-.23-2.17-1.03-3.81-2.38-4.92s-3.35-1.66-5.99-1.66c-2.75 0-4.75.5-6.01 1.51s-1.89 2.22-1.89 3.65c0 1.23.46 2.25 1.34 3.05.88.8 3.16 1.61 6.86 2.45s6.23 1.57 7.61 2.19c2 .92 3.48 2.09 4.43 3.5s1.43 3.04 1.43 4.89c0 1.83-.52 3.55-1.57 5.17s-2.55 2.88-4.51 3.77-4.17 1.35-6.62 1.35c-3.11 0-5.71-.45-7.82-1.36s-3.75-2.27-4.94-4.09-1.82-3.88-1.89-6.18zM415.16 495.5v-34.36h4.66l18.05 26.98V461.14h4.36v34.36h-4.66l-18.05-27v27h-4.36zm33.33-16.73c0-5.7 1.53-10.17 4.59-13.39s7.02-4.84 11.86-4.84c3.17 0 6.03.76 8.58 2.27s4.49 3.63 5.82 6.34 2 5.79 2 9.22c0 3.48-.7 6.6-2.11 9.35s-3.4 4.83-5.98 6.25-5.36 2.12-8.34 2.12c-3.23 0-6.12-.78-8.67-2.34s-4.48-3.69-5.79-6.4-1.97-5.56-1.97-8.58zm4.69.07c0 4.14 1.11 7.4 3.34 9.79s5.02 3.57 8.38 3.57c3.42 0 6.24-1.2 8.45-3.61s3.32-5.82 3.32-10.24c0-2.8-.47-5.24-1.42-7.32s-2.33-3.7-4.15-4.85-3.86-1.72-6.13-1.72c-3.22 0-5.99 1.11-8.31 3.32s-3.48 5.9-3.48 11.08z"/>
  <path d="m368.98 222.16h-13.31v3.33h8.79v42.02h-8.79v3.33h13.31zm-57.93 9.36h33.75v5.72h4.89v-10.09H331.64c-.62-1.56-1.61-3.48-2.5-4.94l-4.99 1.09c.62 1.2 1.25 2.55 1.77 3.85h-19.6v10.09h4.73zm20.8 4.63c4.68 2.91 10.4 7.28 13.1 10.14l3.48-3.12c-2.86-2.91-8.74-7.07-13.26-9.78zm-12.79-2.81c-2.81 3.69-7.54 7.23-12.12 9.41 .99 .83 2.65 2.76 3.33 3.64 4.73-2.65 9.98-6.97 13.31-11.49zm-.31 19.6c3.48-2.44 6.71-5.3 9.41-8.42 3.17 3.38 6.45 6.08 10.09 8.42zm-.62 11.54v-7.28h19.66v7.28zm9.26-26.47c-4.84 7.7-13.83 13.88-23.35 17.26 1.09 1.04 2.39 2.7 3.07 3.9 2.13-.83 4.26-1.87 6.29-2.96v14.14h4.73v-1.61h19.66v1.46h4.94v-14.61c1.92 .99 3.95 2.03 6.03 2.91 .68-1.35 1.98-2.96 3.12-4-8.22-3.07-15.34-7.02-21.16-13.36 .31-.42 .62-.83 .88-1.3zm-30.37-6.66h-18.46v-8.74h-4.99v8.74h-18.41v39.1h4.84v-34.42h13.52c-.26 6.66-2.03 14.77-12.84 20.49 1.14 .88 2.81 2.6 3.43 3.64 6.4-3.74 10.04-8.32 12.06-13.05 4.32 4.16 8.94 9.05 11.34 12.22l3.95-3.17c-3.02-3.69-9-9.41-13.78-13.73 .47-2.24 .73-4.37 .83-6.4h13.73v28.34c0 .94-.31 1.2-1.3 1.25-.99 .05-4.52 .05-7.9-.1 .68 1.3 1.46 3.54 1.66 4.89 4.58 0 7.8-.05 9.72-.88 1.92-.78 2.6-2.24 2.6-5.1zm-60.63 2.03h-24.8v-4.52h24.8zm0 8.16h-24.8v-4.52h24.8zm4.94-16.48H206.84v20.28h34.48zm-4.11 35.67c2.18-2.7 4.89-6.6 7.02-10.24l-4.16-1.82c-1.51 3.17-4.42 7.54-6.6 10.3zm-23.71-1.66c-1.04-2.55-3.54-6.92-5.51-10.04l-3.74 1.56c1.92 3.28 4.26 7.75 5.36 10.35zm18.41 4.26v-16.12h-4.58v16.12h-6.92v-16.12h-4.63v16.12h-15.6v4.63h47.63v-4.63zm-44.3-34.16v4.42h-29.8v-4.42zm-29.8 8.53h34.94v-12.69h-39.83v17.89c0 7.7-.36 17.84-5.2 24.91 1.2 .52 3.33 1.92 4.21 2.7 5.15-7.49 5.88-19.24 5.88-27.61zm13.99 16.8c0-.47 0-.88 0-1.35v-5.04h9.2v6.4zm23.45 0h-9.41v-6.4h7.9v-4h-8.11c1.09-1.56 2.24-3.22 3.28-4.78l-5.15-1.4c-.68 1.77-1.77 4.21-2.91 6.19h-13.83l4.47-1.56c-.62-1.2-1.87-3.22-2.86-4.63l-4.42 1.35c.99 1.51 2.03 3.54 2.65 4.84h-7.18v4h7.44v4.94c0 .47 0 .99-.05 1.46h-8.63v4.11h7.9c-.99 3.07-3.33 5.98-8.53 8.22 1.04 .78 2.55 2.6 3.22 3.64 6.81-3.02 9.41-7.33 10.3-11.86h9.67v11.75h4.84v-11.75h9.41zm-64.22 16.33h13.31v-3.33h-8.79v-42.02h8.79v-3.33h-13.31z" fill="#fff"/>
</svg>