<svg xmlns="http://www.w3.org/2000/svg" viewBox="-366 367 348 348">
  <path d="M-360.9 372.8H-24v337.7h-336.9V372.8z" stroke-width="2" stroke="#000" fill="none"/>
  <path d="M-83.3 407.6c0-8.4 7-15.2 15.6-15.2 4.1 0 8.1 1.6 11 4.4 2.9 2.8 4.6 6.7 4.6 10.7 0 8.4-7 15.2-15.6 15.2s-15.6-6.8-15.6-15.1z" stroke-width="2" stroke="#000" fill="#fff"/>
  <path d="M-341 391h232v72h-232z"/>
  <path d="m-124.33 406.41h-11.26v2.82h7.44v35.55h-7.44v2.82h11.26zm-49.02 7.92h28.56v4.84h4.14v-8.54h-15.27c-.53-1.32-1.36-2.95-2.11-4.18l-4.22 .92c.53 1.01 1.06 2.16 1.5 3.26h-16.59v8.54h4zm17.6 3.92c3.96 2.46 8.8 6.16 11.09 8.58l2.95-2.64c-2.42-2.46-7.39-5.98-11.22-8.27zm-10.82-2.38c-2.38 3.12-6.38 6.12-10.25 7.96 .84 .7 2.24 2.33 2.82 3.08 4-2.24 8.45-5.9 11.26-9.72zm-.26 16.59c2.95-2.07 5.68-4.49 7.96-7.13 2.68 2.86 5.46 5.15 8.54 7.13zm-.53 9.77v-6.16h16.63v6.16zm7.83-22.4c-4.09 6.51-11.7 11.75-19.76 14.61 .92 .88 2.02 2.29 2.6 3.3 1.8-.7 3.61-1.58 5.32-2.51v11.97h4v-1.36h16.63v1.23h4.18V434.7c1.63 .84 3.34 1.72 5.1 2.46 .57-1.14 1.67-2.51 2.64-3.39-6.95-2.6-12.98-5.94-17.91-11.31 .26-.35 .53-.7 .75-1.1zm-25.7-5.63h-15.62v-7.39h-4.22v7.39h-15.58v33.09h4.09v-29.13h11.44c-.22 5.63-1.72 12.5-10.87 17.34 .97 .75 2.38 2.2 2.9 3.08 5.41-3.17 8.49-7.04 10.21-11.04 3.65 3.52 7.57 7.66 9.59 10.34l3.34-2.68c-2.55-3.12-7.61-7.96-11.66-11.62 .4-1.89 .62-3.7 .7-5.41h11.62v23.98c0 .79-.26 1.01-1.1 1.06-.84 .04-3.83 .04-6.69-.09 .57 1.1 1.23 2.99 1.41 4.14 3.87 0 6.6-.04 8.23-.75 1.63-.66 2.2-1.89 2.2-4.31zm-51.3 1.72h-20.99v-3.83h20.99zm0 6.91h-20.99v-3.83h20.99zm4.18-13.95h-29.17v17.16h29.17zm-3.48 30.18c1.85-2.29 4.14-5.59 5.94-8.67l-3.52-1.54c-1.28 2.68-3.74 6.38-5.59 8.71zm-20.06-1.41c-.88-2.16-2.99-5.85-4.66-8.49l-3.17 1.32c1.63 2.77 3.61 6.56 4.53 8.76zm15.58 3.61v-13.64h-3.87v13.64h-5.85v-13.64h-3.92v13.64h-13.2v3.92h40.3v-3.92zM-277.8 412.35v3.74h-25.21v-3.74zm-25.21 7.22h29.57v-10.74h-33.7v15.14c0 6.51-.31 15.09-4.4 21.08 1.01 .44 2.82 1.63 3.56 2.29 4.36-6.34 4.97-16.28 4.97-23.36zm11.84 14.21c0-.4 0-.75 0-1.14v-4.27h7.79v5.41zm19.84 0h-7.96v-5.41h6.69v-3.39h-6.86c.92-1.32 1.89-2.73 2.77-4.05l-4.36-1.19c-.57 1.5-1.5 3.56-2.46 5.24h-11.7l3.78-1.32c-.53-1.01-1.58-2.73-2.42-3.92l-3.74 1.14c.84 1.28 1.72 2.99 2.24 4.09h-6.07v3.39h6.29v4.18c0 .4 0 .84-.04 1.23h-7.3v3.48h6.69c-.84 2.6-2.82 5.06-7.22 6.95 .88 .66 2.16 2.2 2.73 3.08 5.76-2.55 7.96-6.2 8.71-10.03h8.18v9.94h4.09v-9.94h7.96zm-54.34 13.82h11.26v-2.82h-7.44v-35.55h7.44v-2.82h-11.26z" fill="#fff"/>
  <path d="M-323 489h53v53h-53zm0 64.5h53v53h-53zm0 65h53v53h-53zm66.1-129.5h53v53h-53zm0 64.5h53v53h-53zm0 65h53v53h-53zm67-129.5h53v53h-53zm0 64.5h53v53h-53zm0 65h53v53h-53zm67.6-129.5h53v53h-53zm0 64.5h53v53h-53zm0 65h53v53h-53z" fill="#FFF" stroke="#000" stroke-width="1.25"/>
  <path d="m-291.23 529.88h-3.52v-22.4q-1.27 1.21-3.34 2.42-2.05 1.21-3.69 1.82v-3.4q2.95-1.39 5.16-3.36 2.21-1.97 3.13-3.83h2.27z"/>
  <path d="m-220.91 526.5v3.38h-18.93q-.04-1.27 .41-2.44 .72-1.93 2.3-3.81 1.6-1.87 4.61-4.34 4.67-3.83 6.31-6.05 1.64-2.25 1.64-4.24 0-2.09-1.5-3.52-1.48-1.45-3.89-1.45-2.54 0-4.06 1.52-1.52 1.52-1.54 4.22l-3.61-.37q.37-4.04 2.79-6.15 2.42-2.13 6.5-2.13 4.12 0 6.52 2.29 2.4 2.29 2.4 5.66 0 1.72-.7 3.38-.7 1.66-2.34 3.5-1.62 1.84-5.41 5.04-3.16 2.66-4.06 3.61-.9 .94-1.48 1.89z"/>
  <path d="m-172.77 522.06 3.52-.47q.61 2.99 2.05 4.32 1.46 1.31 3.55 1.31 2.48 0 4.18-1.72 1.72-1.72 1.72-4.26 0-2.42-1.58-3.98-1.58-1.58-4.02-1.58-1 0-2.48 .39l.39-3.09q.35 .04 .57 .04 2.25 0 4.04-1.17 1.8-1.17 1.8-3.61 0-1.93-1.31-3.2-1.31-1.27-3.38-1.27-2.05 0-3.42 1.29-1.37 1.29-1.76 3.87l-3.52-.62q.64-3.54 2.93-5.47 2.29-1.95 5.68-1.95 2.34 0 4.32 1.02 1.97 1 3.01 2.73 1.05 1.74 1.05 3.69 0 1.86-1 3.38-1 1.52-2.95 2.42 2.54 .59 3.95 2.44 1.41 1.84 1.41 4.61 0 3.75-2.73 6.37-2.73 2.6-6.91 2.6-3.77 0-6.27-2.25-2.48-2.25-2.83-5.82z"/>
  <path d="m-105.14 515.51q0-5.08 1.04-8.16 1.05-3.11 3.11-4.79 2.07-1.68 5.2-1.68 2.3 0 4.04 .94 1.74 .92 2.87 2.68 1.13 1.74 1.78 4.26 .64 2.5 .64 6.76 0 5.04-1.04 8.14-1.04 3.09-3.11 4.79-2.05 1.68-5.2 1.68-4.14 0-6.5-2.97-2.83-3.57-2.83-11.64zm3.61 0q0 7.05 1.64 9.39 1.66 2.32 4.08 2.32 2.42 0 4.06-2.34 1.66-2.34 1.66-9.37 0-7.07-1.66-9.39-1.64-2.32-4.1-2.32-2.42 0-3.87 2.05-1.82 2.62-1.82 9.67z"/>
  <path d="m-293.98 593.72v-6.86h-12.42v-3.22l13.07-18.55h2.87v18.55h3.87v3.22h-3.87v6.86zm0-10.08v-12.91l-8.96 12.91z"/>
  <path d="m-239.89 586.38 3.69-.31q.41 2.7 1.89 4.06 1.5 1.35 3.61 1.35 2.54 0 4.3-1.91 1.76-1.91 1.76-5.08 0-3.01-1.7-4.75-1.68-1.74-4.41-1.74-1.7 0-3.07 .78-1.37 .76-2.15 1.99l-3.3-.43 2.77-14.71h14.24v3.36h-11.43l-1.54 7.7q2.58-1.8 5.41-1.8 3.75 0 6.33 2.6 2.58 2.6 2.58 6.68 0 3.89-2.27 6.72-2.75 3.48-7.52 3.48-3.91 0-6.39-2.19-2.46-2.19-2.81-5.8z"/>
  <path d="m-154.46 572.51-3.5 .27q-.47-2.07-1.33-3.01-1.43-1.5-3.52-1.5-1.68 0-2.95 .94-1.66 1.21-2.62 3.54-.96 2.32-1 6.62 1.27-1.93 3.11-2.87 1.84-.94 3.85-.94 3.52 0 5.98 2.6 2.48 2.58 2.48 6.68 0 2.7-1.17 5.02-1.15 2.3-3.18 3.54-2.03 1.23-4.61 1.23-4.39 0-7.17-3.22-2.77-3.24-2.77-10.66 0-8.3 3.07-12.07 2.68-3.28 7.21-3.28 3.38 0 5.53 1.89 2.17 1.89 2.6 5.23zm-14.36 12.34q0 1.82 .76 3.48 .78 1.66 2.17 2.54 1.39 .86 2.91 .86 2.23 0 3.83-1.8 1.6-1.8 1.6-4.88 0-2.97-1.58-4.67-1.58-1.72-3.98-1.72-2.38 0-4.04 1.72-1.66 1.7-1.66 4.47z"/>
  <path d="m-305.77 634.25v-3.38h18.54v2.73q-2.73 2.91-5.43 7.73-2.68 4.82-4.14 9.92-1.05 3.59-1.35 7.87h-3.61q.06-3.38 1.33-8.16 1.27-4.79 3.63-9.22 2.38-4.45 5.06-7.5z"/>
  <path d="m-234.38 643.6q-2.19-.8-3.24-2.29-1.05-1.48-1.05-3.55 0-3.12 2.25-5.25 2.25-2.13 5.98-2.13 3.75 0 6.04 2.19 2.29 2.17 2.29 5.29 0 1.99-1.05 3.48-1.04 1.46-3.16 2.27 2.64 .86 4 2.77 1.39 1.91 1.39 4.57 0 3.67-2.6 6.17-2.6 2.5-6.84 2.5-4.24 0-6.84-2.5-2.6-2.52-2.6-6.27 0-2.79 1.41-4.67 1.43-1.89 4.04-2.58zm-.7-5.96q0 2.03 1.31 3.32 1.31 1.29 3.4 1.29 2.03 0 3.32-1.27 1.31-1.29 1.31-3.14 0-1.93-1.35-3.24-1.33-1.33-3.32-1.33-2.01 0-3.34 1.29-1.33 1.29-1.33 3.09zm-1.13 13.22q0 1.5 .7 2.91 .72 1.41 2.13 2.19 1.41 .76 3.03 .76 2.52 0 4.16-1.62 1.64-1.62 1.64-4.12 0-2.54-1.7-4.2-1.68-1.66-4.22-1.66-2.48 0-4.12 1.64-1.62 1.64-1.62 4.1z"/>
  <path d="m-172.28 652.51 3.38-.31q.43 2.38 1.64 3.46 1.21 1.07 3.11 1.07 1.62 0 2.83-.74 1.23-.74 2.01-1.97 .78-1.25 1.31-3.36 .53-2.11 .53-4.3 0-.23-.02-.7-1.05 1.68-2.89 2.73-1.82 1.04-3.95 1.04-3.55 0-6.02-2.58-2.46-2.58-2.46-6.8 0-4.36 2.56-7.01 2.58-2.66 6.45-2.66 2.79 0 5.1 1.5 2.32 1.5 3.52 4.3 1.21 2.77 1.21 8.05 0 5.49-1.19 8.75-1.19 3.24-3.55 4.94-2.34 1.7-5.51 1.7-3.36 0-5.49-1.86-2.13-1.87-2.56-5.25zm14.39-12.64q0-3.03-1.62-4.8-1.6-1.78-3.87-1.78-2.34 0-4.08 1.91-1.74 1.91-1.74 4.96 0 2.73 1.64 4.45 1.66 1.7 4.08 1.7 2.44 0 4-1.7 1.58-1.72 1.58-4.75z"/>
  <path d="m-86.35 642.29h-18.91v-3.28h18.91zm0 8.69h-18.91v-3.28h18.91z"/>
  <path d="m-101.2 581.77v-3.54h10.8v3.54z"/>
</svg>