<svg xmlns="http://www.w3.org/2000/svg" viewBox="0 90 612 612">
  <path fill="none" stroke="#000" stroke-width="2" stroke-linejoin="round" d="M8.93 100.16h592.5V693.99H8.93V100.16z"/>
  <path fill="none" stroke="#000" stroke-width="2" stroke-linejoin="round" d="M497.22 161.32c0-14.73 12.25-26.67 27.36-26.67 7.26 0 14.22 2.81 19.35 7.81 5.13 5 8.02 11.79 8.02 18.86 0 14.73-12.25 26.67-27.36 26.67-15.11 0-27.36-11.94-27.36-26.67z"/>
  <path fill="none" stroke="#231F20" stroke-width="2" d="M58.5 154.5h386v142h-386z"/>
  <path fill="#FFF" stroke="#000" stroke-width="2" d="M32.5 344.5h78v294h-78zm78 0h78v294h-78zm78 0h78v294h-78z"/>
  <path fill="#FFF" stroke="#000" stroke-width="2" d="M266 344.5h78v294h-78zm78 0h78v294h-78zm78 0h78v294h-78zm78 0h78v294h-78z"/>
  <path fill="#231F20" stroke="#000" stroke-width="2" d="M88 344.5h45v161H88zm78 0h45v161h-45zm155.5 0h45v161h-45zm78 0h45v161h-45zm78 0h45v161h-45z"/>
  <path fill="#000" d="m323.63 199.29h-14.34v3.58h9.46v45.25h-9.46v3.58h14.34zm-31.86 13.78h-24.81v-6.55h24.81zm5.49-11.09h-35.45v15.62h35.45zm6.5 24.7v-4.76h-48.72v4.76h11.03c-1.12 3.53-2.46 7.39-3.58 10.08h28.73c-.84 5.38-1.9 8.12-3.14 9.07-.67 .5-1.4 .56-2.69 .56-1.57 0-5.66-.06-9.46-.45 .95 1.46 1.68 3.47 1.79 4.98 3.81 .22 7.45 .22 9.52 .11 2.3-.11 3.81-.45 5.32-1.79 2.02-1.74 3.36-5.94 4.59-14.95 .17-.73 .28-2.24 .28-2.24h-27.27c.62-1.74 1.18-3.58 1.74-5.38zM232.24 209.26c1.51 2.18 3.19 4.82 4.03 6.5l4.54-1.9c-.73-1.18-1.85-2.97-3.02-4.59h10.14v-4.37h-16.69c.5-1.34 1.06-2.74 1.51-4.14l-4.98-1.12c-1.68 5.43-4.7 10.7-8.46 13.94 1.29 .73 3.42 2.13 4.42 2.97 1.85-1.96 3.7-4.48 5.26-7.28zm-23.3 0c1.23 2.46 2.74 5.49 3.47 7.28l4.59-1.57c-.67-1.51-1.79-3.7-2.91-5.71h8.18v-4.37h-13.16c.56-1.34 1.06-2.69 1.51-4.03l-4.98-1.23c-1.68 5.43-4.7 10.92-8.18 14.39 1.29 .67 3.42 2.07 4.42 2.91 1.74-2.07 3.47-4.7 5.1-7.67zm.95 6.61c-2.8 5.99-7.5 11.93-12.15 15.79 1.06 1.01 2.74 3.3 3.47 4.37 1.62-1.46 3.36-3.19 4.93-5.1v20.27h4.98v-27.16c1.4-2.13 2.63-4.31 3.7-6.5zm7.62 15.85c2.35 3.47 5.43 8.18 6.94 10.92l4.31-2.63c-1.51-2.69-4.7-7.22-7.06-10.53zm30.58-9.58h-7v-5.71h-5.1v5.71h-21.06v4.76h21.06v18.03c0 .95-.28 1.23-1.4 1.23-1.01 .06-4.7 .06-8.4-.06 .73 1.4 1.51 3.58 1.74 5.04 4.93 0 8.34-.11 10.42-.9 2.07-.73 2.74-2.18 2.74-5.21V226.9h7zm-68.71 29.57h14.34v-3.58h-9.46v-45.25h9.46v-3.58h-14.34z"/>
</svg>