<svg xmlns="http://www.w3.org/2000/svg" height="348" width="348">
  <path d="M4 5h340v340H4z" stroke-width="2" stroke="#000" fill-opacity=".3" fill="red"/>
  <circle stroke-width="2" stroke="#000" fill="#fff" r="15" cy="38.67" cx="296.67"/>
  <path d="M28.15 102.15h289.68v216.69H28.15z" stroke-width="2.31" stroke="#000" fill="#fff"/>
  <ellipse ry="18.43" rx="17.69" fill-rule="evenodd" cy="128.29" cx="293.44"/>
  <path d="M178.42 4.95v97.32" stroke-width="9.4" stroke="#000"/>
  <path d="m239.97 186.16h-13.31v3.33h8.79v42.02h-8.79v3.33h13.31zm-58.08 10.19h33.96v6.55h4.94v-11.13h-18.04c-.73-1.72-2.03-3.85-3.33-5.56l-4.73 1.51c.83 1.2 1.66 2.7 2.34 4.06H177.15v11.13h4.73zm39.36 17.99h-19.71v-1.4c4.42-2.55 8.79-5.93 11.96-9.15l-3.28-2.5-1.09 .26h-23.82v4.47h18.93c-2.34 1.98-5.2 4-7.85 5.3v3.02h-19.71v4.63h19.71v9.57c0 .73-.31 .99-1.25 .99-.99 .05-4.58 .05-7.85-.05 .78 1.25 1.77 3.43 2.08 4.84 4.26 0 7.28-.05 9.36-.83 2.13-.73 2.81-2.08 2.81-4.78v-9.72h19.71zm-64.27-14.09c-2.34 6.4-5.56 11.7-9.78 16.07-4.42-4.58-7.9-9.93-10.4-16.07zm13.47 0v-4.68h-23.35l4.63-1.46c-.68-2.13-2.34-5.46-3.85-7.9l-5.1 1.51c1.4 2.44 2.86 5.72 3.48 7.85h-22.52v4.68h8.01c2.91 7.59 6.76 14.09 11.8 19.45-5.51 4.52-12.32 7.75-20.7 9.98 .99 1.14 2.44 3.38 3.02 4.63 8.42-2.6 15.5-6.24 21.27-11.13 5.62 4.89 12.53 8.58 20.8 10.82 .78-1.4 2.18-3.43 3.28-4.47-8.01-1.98-14.77-5.36-20.33-9.88 4.89-5.2 8.74-11.54 11.49-19.4zm-64.43 34.58h13.31v-3.33h-8.79v-42.02h8.79v-3.33h-13.31z"/>
</svg>