<svg xmlns="http://www.w3.org/2000/svg" viewBox="0 0 348 348" fill="none" stroke="none">
  <path stroke="#000" stroke-width="2" stroke-linejoin="round" d="m5.08 5.78l336.91 0 0 337.67 -336.91 0z"/>
  <path stroke="#000" stroke-width="2" stroke-linejoin="round" d="m17.04 71.18l225.39 0 0 235.34 -225.39 0z"/>
  <path fill="#000" d="m273.46 109.96l46.27 0 0 196.57 -46.27 0z"/>
  <path stroke="#000" stroke-width="2" stroke-linejoin="round" d="m273.46 109.96l46.27 0 0 196.57 -46.27 0z"/>
  <path stroke="#000" stroke-width="2" stroke-linejoin="round" d="m282.73 40.55l0 0c0-8.38 6.97-15.17 15.56-15.17l0 0c4.13 0 8.08 1.6 11 4.44 2.92 2.84 4.56 6.7 4.56 10.72l0 0c0 8.38-6.97 15.17-15.56 15.17l0 0c-8.59 0-15.56-6.79-15.56-15.17z"/>
  <path stroke="#000" stroke-width="2" stroke-linejoin="round" d="m31.56 188.85l0 0c0-54.95 43.95-99.5 98.17-99.5l0 0c26.04 0 51.01 10.48 69.42 29.14 18.41 18.66 28.75 43.97 28.75 70.35l0 0c0 54.95-43.95 99.5-98.17 99.5l0 0c-54.22 0-98.17-44.55-98.17-99.5z"/>
  <path stroke="#000" stroke-width="1" stroke-linejoin="round" d="m40.97 96l177.92 0 0 185.7 -177.92 0z"/>
  <path stroke="#000" stroke-width="1" stroke-linejoin="round" d="m17.71 72.9l23.46 23.06"/>
  <path stroke="#000" stroke-width="1" stroke-linejoin="round" d="m219.1 281.7l23.09 24.28"/>
  <path stroke="#000" stroke-width="1" stroke-linejoin="round" d="m242.16 72.9l-22.65 23.06"/>
  <path stroke="#000" stroke-width="1" stroke-linejoin="round" d="m40.76 281.7l-22.65 23.06"/>
  <path stroke="#000" stroke-width="2" stroke-linejoin="round" d="m55.19 58.89l25.95 0 0 12.28 -25.95 0z"/>
  <path stroke="#000" stroke-width="2" stroke-linejoin="round" d="m180.34 58.89l25.95 0 0 12.28 -25.95 0z"/>
  <path stroke="#000" stroke-width="2" stroke-linejoin="round" d="m84.14 63.42l92.25 0 0 7.75 -92.25 0z"/>
  <path d="m186.4 168.26h-11.26v2.82h7.44v35.55h-7.44v2.82h11.26zm-49.15 8.62h28.73v5.54h4.18v-9.42h-15.27c-.62-1.45-1.72-3.26-2.82-4.71l-4 1.28c.7 1.01 1.41 2.29 1.98 3.43h-16.81v9.42h4zm33.31 15.22h-16.68v-1.19c3.74-2.16 7.44-5.02 10.12-7.74l-2.77-2.11-.92 .22h-20.15v3.78h16.02c-1.98 1.67-4.4 3.39-6.64 4.49v2.55h-16.68v3.92h16.68v8.1c0 .62-.26 .84-1.06 .84-.84 .04-3.87 .04-6.64-.04 .66 1.06 1.5 2.9 1.76 4.09 3.61 0 6.16-.04 7.92-.7 1.8-.62 2.38-1.76 2.38-4.05v-8.23h16.68zm-54.38-11.92c-1.98 5.41-4.71 9.9-8.27 13.6-3.74-3.87-6.69-8.4-8.8-13.6zm11.4 0v-3.96h-19.76l3.92-1.23c-.57-1.8-1.98-4.62-3.26-6.69l-4.31 1.28c1.19 2.07 2.42 4.84 2.95 6.64H88.06v3.96h6.78c2.46 6.42 5.72 11.92 9.99 16.46-4.66 3.83-10.43 6.56-17.51 8.45 .84 .97 2.07 2.86 2.55 3.92 7.13-2.2 13.11-5.28 18-9.42 4.75 4.14 10.6 7.26 17.6 9.15 .66-1.19 1.85-2.9 2.77-3.78-6.78-1.67-12.5-4.53-17.2-8.36 4.14-4.4 7.39-9.77 9.72-16.41zm-54.52 29.26h11.26v-2.82h-7.44v-35.55h7.44v-2.82h-11.26z" fill="#000"/>
</svg>