<svg xmlns="http://www.w3.org/2000/svg" viewBox="0 0 348 348" fill="none">
  <path stroke="#000" stroke-width="2" stroke-linejoin="round" d="m5.08 5.78l336.91 0 0 337.67 -336.91 0z"/>
  <path fill="#000" d="m133.84 15.67l74.33 0 0 56.88 -74.33 0z"/>
  <path fill="#fff" d="m154.54 44.09q0-4.06 .83-6.53 .84-2.48 2.48-3.83 1.66-1.34 4.16-1.34 1.84 0 3.23 .75 1.39 .73 2.3 2.14 .91 1.39 1.42 3.41 .52 2 .52 5.41 0 4.03-.83 6.52 -.83 2.47-2.48 3.83 -1.64 1.34-4.16 1.34 -3.31 0-5.2-2.37 -2.27-2.86-2.27-9.31zm2.89 0q0 5.64 1.31 7.52 1.33 1.86 3.27 1.86 1.94 0 3.25-1.87 1.33-1.87 1.33-7.5 0-5.66-1.33-7.52 -1.31-1.86-3.28-1.86 -1.94 0-3.09 1.64 -1.45 2.09-1.45 7.73zm14.91 0q0-4.06 .83-6.53 .84-2.48 2.48-3.83 1.66-1.34 4.16-1.34 1.84 0 3.23 .75 1.39 .73 2.3 2.14 .91 1.39 1.42 3.41 .52 2 .52 5.41 0 4.03-.83 6.52 -.83 2.47-2.48 3.83 -1.64 1.34-4.16 1.34 -3.31 0-5.2-2.37 -2.27-2.86-2.27-9.31zm2.89 0q0 5.64 1.31 7.52 1.33 1.86 3.27 1.86 1.94 0 3.25-1.87 1.33-1.87 1.33-7.5 0-5.66-1.33-7.52 -1.31-1.86-3.28-1.86 -1.94 0-3.09 1.64 -1.45 2.09-1.45 7.73z"/>
  <path stroke="#000" stroke-width="2" stroke-linejoin="round" d="m15.26 17.71l109.89 0 0 54.83 -109.89 0z"/>
  <path stroke="#000" stroke-width="2" stroke-linejoin="round" d="m15.26 72.65l39.69-54.08"/>
  <path stroke="#000" stroke-width="2" stroke-linejoin="round" d="m37.57 72.65l39.69-54.08"/>
  <path stroke="#000" stroke-width="2" stroke-linejoin="round" d="m59.87 72.65l39.69-54.08"/>
  <path stroke="#000" stroke-width="2" stroke-linejoin="round" d="m82.17 72.65l39.69-54.08"/>
  <path stroke="#000" stroke-width="2" stroke-linejoin="round" d="m32.98 83.03l282.05 0 0 242.36 -282.05 0z"/>
  <path stroke="#000" stroke-width="2" stroke-linejoin="round" d="m216.86 16.63l109.89 0 0 54.83 -109.89 0z"/>
  <path stroke="#000" stroke-width="2" stroke-linejoin="round" d="m216.86 71.58l39.69-54.08"/>
  <path stroke="#000" stroke-width="2" stroke-linejoin="round" d="m239.17 71.58l39.69-54.08"/>
  <path stroke="#000" stroke-width="2" stroke-linejoin="round" d="m261.47 71.58l39.69-54.08"/>
  <path stroke="#000" stroke-width="2" stroke-linejoin="round" d="m283.78 71.58l39.69-54.08"/>
  <path fill="#000" d="m44.49 88.12l258.99 0 0 163.94 -258.99 0z"/>
  <path stroke="#000" stroke-width="1" stroke-linejoin="round" d="m113.77 267.52l49.26 0 0 45.48 -49.26 0z"/>
  <path fill="#000" d="m137.48 294.44l0-5.77 -5.23-7.83 2.19 0 2.67 4.09q.75 1.16 1.39 2.3 .61-1.06 1.48-2.41l2.63-3.98 2.11 0 -5.44 7.83 0 5.77 -1.8 0z"/>
  <path stroke="#000" stroke-width="1" stroke-linejoin="round" d="m182.8 267.52l49.26 0 0 45.48 -49.26 0z"/>
  <path fill="#000" d="m202.14 294.44l0-13.59 1.84 0 7.14 10.67 0-10.67 1.72 0 0 13.59 -1.84 0 -7.14-10.69 0 10.69 -1.72 0z"/>
  <path stroke="#000" stroke-width="2" stroke-linejoin="round" d="m260.08 270.74l36.72 0 0 25.64 -36.72 0z"/>
  <path stroke="#000" stroke-width="2" stroke-linejoin="round" d="m265.46 305.51l0 0c0-2.36 1.91-4.27 4.27-4.27l0 0c1.13 0 2.22 .45 3.02 1.25 .8 .8 1.25 1.89 1.25 3.02l0 0c0 2.36-1.91 4.27-4.27 4.27l0 0c-2.36 0-4.27-1.91-4.27-4.27z"/>
  <path stroke="#000" stroke-width="2" stroke-linejoin="round" d="m282.81 305.51l0 0c0-2.36 1.91-4.27 4.27-4.27l0 0c1.13 0 2.22 .45 3.02 1.25 .8 .8 1.25 1.89 1.25 3.02l0 0c0 2.36-1.91 4.27-4.27 4.27l0 0c-2.36 0-4.27-1.91-4.27-4.27z"/>
  <path d="m230.72 104.58h-11.26v2.82h7.44v35.55h-7.44v2.82h11.26zm-49.15 8.62h28.73v5.54h4.18v-9.42h-15.27c-.62-1.45-1.72-3.26-2.82-4.71l-4 1.28c.7 1.01 1.41 2.29 1.98 3.43h-16.81v9.42h4zm33.31 15.22h-16.68v-1.19c3.74-2.16 7.44-5.02 10.12-7.74l-2.77-2.11-.92 .22h-20.15v3.78h16.02c-1.98 1.67-4.4 3.39-6.64 4.49v2.55h-16.68v3.92h16.68v8.1c0 .62-.26 .84-1.06 .84-.84 .04-3.87 .04-6.64-.04 .66 1.06 1.5 2.9 1.76 4.09 3.61 0 6.16-.04 7.92-.7 1.8-.62 2.38-1.76 2.38-4.05v-8.23h16.68zm-54.38-11.92c-1.98 5.41-4.71 9.9-8.27 13.6-3.74-3.87-6.69-8.4-8.8-13.6zm11.4 0v-3.96h-19.76l3.92-1.23c-.57-1.8-1.98-4.62-3.26-6.69l-4.31 1.28c1.19 2.07 2.42 4.84 2.95 6.64h-19.05v3.96h6.78c2.46 6.42 5.72 11.92 9.99 16.46-4.66 3.83-10.43 6.56-17.51 8.45 .84 .97 2.07 2.86 2.55 3.92 7.13-2.2 13.11-5.28 18-9.42 4.75 4.14 10.6 7.26 17.6 9.15 .66-1.19 1.85-2.9 2.77-3.78-6.78-1.67-12.5-4.53-17.2-8.36 4.14-4.4 7.39-9.77 9.72-16.41zm-54.52 29.26h11.26v-2.82h-7.44v-35.55h7.44v-2.82h-11.26z" fill="#fff"/>
</svg>