<svg xmlns="http://www.w3.org/2000/svg" viewBox="0 0 348 348" fill="none">
  <path d="M5.08 5.78h336.91v337.67H5.08z" stroke-linejoin="round" stroke-width="2" stroke="#000"/>
  <rect width="220.71" height="41.52" x="28" y="42.07" rx="1.03" fill="#000"/>
  <rect width="220.71" height="41.52" x="28" y="92.01" rx="1.03" fill="#000"/>
  <path d="m220.72 45.98h-9.22v2.3h6.08v29.09h-6.08v2.3h9.22zm-40.1 6.48h23.36v3.96h3.38v-6.98h-12.49c-.43-1.08-1.12-2.41-1.73-3.42l-3.46 .76c.43 .83 .86 1.76 1.22 2.66h-13.57v6.98h3.28zm14.4 3.2c3.24 2.02 7.2 5.04 9.07 7.02l2.41-2.16c-1.98-2.02-6.05-4.9-9.18-6.77zm-8.86-1.94c-1.94 2.56-5.22 5-8.39 6.52 .68 .58 1.84 1.91 2.3 2.52 3.28-1.84 6.91-4.82 9.22-7.96zm-.22 13.57c2.41-1.69 4.64-3.67 6.52-5.83 2.2 2.34 4.46 4.21 6.98 5.83zm-.43 7.99v-5.04h13.61v5.04zm6.41-18.32c-3.35 5.33-9.58 9.61-16.16 11.95 .76 .72 1.66 1.87 2.12 2.7 1.48-.58 2.95-1.3 4.36-2.05v9.79h3.28v-1.12h13.61v1.01h3.42v-10.12c1.33 .68 2.74 1.4 4.18 2.02 .47-.94 1.37-2.05 2.16-2.77-5.69-2.12-10.62-4.86-14.65-9.25 .22-.29 .43-.58 .61-.9zm-21.02-4.61h-12.78v-6.05h-3.46v6.05h-12.74v27.07h3.35v-23.83h9.36c-.18 4.61-1.4 10.22-8.89 14.18 .79 .61 1.94 1.8 2.38 2.52 4.43-2.59 6.95-5.76 8.35-9.04 2.99 2.88 6.19 6.26 7.85 8.46l2.74-2.2c-2.09-2.56-6.23-6.52-9.54-9.5 .32-1.55 .5-3.02 .58-4.43h9.5v19.62c0 .65-.22 .83-.9 .86-.68 .04-3.13 .04-5.47-.07 .47 .9 1.01 2.45 1.15 3.38 3.17 0 5.4-.04 6.73-.61 1.33-.54 1.8-1.55 1.8-3.53zm-41.98 1.4h-17.17v-3.13h17.17zm0 5.65h-17.17v-3.13h17.17zm3.42-11.41h-23.87v14.04h23.87zm-2.84 24.7c1.51-1.87 3.38-4.57 4.86-7.09l-2.88-1.26c-1.04 2.2-3.06 5.22-4.57 7.13zm-16.42-1.15c-.72-1.76-2.45-4.79-3.82-6.95l-2.59 1.08c1.33 2.27 2.95 5.36 3.71 7.16zm12.74 2.95v-11.16h-3.17v11.16h-4.79v-11.16h-3.2v11.16h-10.8v3.2h32.98v-3.2zm-30.67-23.65v3.06h-20.63v-3.06zm-20.63 5.9h24.19v-8.78h-27.58v12.38c0 5.33-.25 12.35-3.6 17.24 .83 .36 2.3 1.33 2.92 1.87 3.56-5.18 4.07-13.32 4.07-19.12zm9.68 11.63c0-.32 0-.61 0-.94v-3.49h6.37v4.43zm16.24 0h-6.52v-4.43h5.47v-2.77h-5.62c.76-1.08 1.55-2.23 2.27-3.31l-3.56-.97c-.47 1.22-1.22 2.92-2.02 4.28h-9.58l3.1-1.08c-.43-.83-1.3-2.23-1.98-3.2l-3.06 .94c.68 1.04 1.4 2.45 1.84 3.35h-4.97v2.77h5.15v3.42c0 .32 0 .68-.04 1.01h-5.98v2.84h5.47c-.68 2.12-2.3 4.14-5.9 5.69 .72 .54 1.76 1.8 2.23 2.52 4.72-2.09 6.52-5.08 7.13-8.21h6.7v8.14h3.35v-8.14H100.45Zm-44.46 11.3h9.22v-2.3h-6.08v-29.09h6.08v-2.3h-9.22z" fill="#fff"/>
  <path d="m220.72 95.92h-9.22v2.3h6.08V127.32h-6.08v2.3h9.22zM180.62 102.4h23.36v3.96h3.38v-6.98h-12.49c-.43-1.08-1.12-2.41-1.73-3.42l-3.46 .76c.43 .83 .86 1.76 1.22 2.66H177.34V106.36h3.28zm14.4 3.2c3.24 2.02 7.2 5.04 9.07 7.02l2.41-2.16c-1.98-2.02-6.05-4.9-9.18-6.77zm-8.86-1.94c-1.94 2.56-5.22 5-8.39 6.52 .68 .58 1.84 1.91 2.3 2.52 3.28-1.84 6.91-4.82 9.22-7.96zm-.22 13.57c2.41-1.69 4.64-3.67 6.52-5.83 2.2 2.34 4.46 4.21 6.98 5.83zm-.43 7.99v-5.04h13.61v5.04zm6.41-18.32c-3.35 5.33-9.58 9.61-16.16 11.95 .76 .72 1.66 1.87 2.12 2.7 1.48-.58 2.95-1.3 4.36-2.05v9.79h3.28v-1.12h13.61v1.01h3.42v-10.12c1.33 .68 2.74 1.4 4.18 2.02 .47-.94 1.37-2.05 2.16-2.77-5.69-2.12-10.62-4.86-14.65-9.25 .22-.29 .43-.58 .61-.9zm-21.02-4.61h-12.78v-6.05h-3.46V102.3h-12.74v27.07h3.35v-23.83h9.36c-.18 4.61-1.4 10.22-8.89 14.18 .79 .61 1.94 1.8 2.38 2.52 4.43-2.59 6.95-5.76 8.35-9.04 2.99 2.88 6.19 6.26 7.85 8.46l2.74-2.2c-2.09-2.56-6.23-6.52-9.54-9.5 .32-1.55 .5-3.02 .58-4.43h9.5v19.62c0 .65-.22 .83-.9 .86-.68 .04-3.13 .04-5.47-.07 .47 .9 1.01 2.45 1.15 3.38 3.17 0 5.4-.04 6.73-.61 1.33-.54 1.8-1.55 1.8-3.53zm-58.21-2.66c2.34 1.62 4.14 3.53 5.69 5.72-2.23 9.86-6.66 16.96-14.51 20.92 .86 .61 2.48 2.02 3.06 2.74 6.91-4.07 11.41-10.37 14.15-19.19 3.78 6.95 6.55 14.76 14.36 19.15 .18-1.04 1.04-2.88 1.62-3.82-11.7-7.16-10.94-20.16-22.28-28.37zM79.57 117.7l-2.59 .54v-3.85h2.59v-3.02h-2.59v-5.18h-2.84v5.18h-2.63c.9-2.38 1.73-5.11 2.41-7.99h5.72v-2.99h-5.08c.22-1.19 .43-2.45 .61-3.64l-3.06-.47c-.11 1.37-.32 2.77-.54 4.1h-3.53v2.99h2.95c-.54 2.81-1.15 5.04-1.44 5.9-.54 1.58-.94 2.74-1.58 2.88 .36 .76 .83 2.16 .94 2.74 .36-.29 1.48-.5 2.56-.5h2.66v4.43c-2.38 .5-4.5 .94-6.23 1.26l.72 3.13c1.62-.36 3.53-.83 5.51-1.3v7.34h2.84v-8.06l2.84-.72zm4.28 1.84v-2.41h4.28v2.41zm4.28-7.27v2.38h-4.28v-2.38zm2.7-2.63h-9.68v19.55h2.7v-7.16h4.28v4c0 .32-.07 .43-.4 .43-.32 0-1.22 0-2.3-.04 .4 .76 .72 1.94 .79 2.66 1.62 0 2.74-.04 3.6-.47 .79-.47 1.01-1.26 1.01-2.56zm6.23 16.13c0 .43-.14 .54-.58 .54-.43 .04-1.94 .04-3.53 0 .4 .76 .76 1.91 .86 2.66 2.16 0 3.64-.07 4.61-.5 1.01-.43 1.26-1.22 1.26-2.7v-16.67h-2.63zm-1.98-15.34h-2.56v13h2.56zm-9.83-5.54c1.76-1.26 3.46-2.74 4.9-4.36 1.58 1.69 3.31 3.13 5.15 4.36zm4.68-8.78c-2.38 3.67-6.88 7.02-11.2 8.93 .79 .68 1.69 1.76 2.2 2.52 .76-.4 1.58-.83 2.34-1.33v1.37h13.72v-1.62c.79 .47 1.58 .9 2.41 1.3 .4-.86 1.3-1.91 2.05-2.56-3.6-1.51-6.88-3.38-9.58-6.26 .29-.36 .54-.72 .79-1.12zm-33.95 33.52h9.22v-2.3h-6.08V98.23h6.08v-2.3h-9.22z" fill="#fff"/>
  <rect width="59.4" height="59.4" x="28.3" y="178.3" rx=".57" ry="0" stroke="#000" stroke-width=".6"/>
  <rect ry="0" rx=".57" y="178.3" x="102.3" height="59.4" width="59.4" stroke="#000" stroke-width=".6"/>
  <rect ry="0" rx=".57" y="178.3" x="180.3" height="59.4" width="59.4" stroke="#000" stroke-width=".6"/>
  <rect width="59.4" height="59.4" x="254.3" y="178.3" rx=".57" ry="0" stroke="#000" stroke-width=".6"/>
  <rect ry="0" rx=".57" y="256.3" x="28.3" height="59.4" width="59.4" stroke="#000" stroke-width=".6"/>
  <rect width="59.4" height="59.4" x="104.3" y="256.3" rx=".57" ry="0" stroke="#000" stroke-width=".6"/>
  <rect width="59.4" height="59.4" x="180.3" y="256.3" rx=".57" ry="0" stroke="#000" stroke-width=".6"/>
  <rect ry="0" rx=".57" y="256.3" x="254.3" height="59.4" width="59.4" stroke="#000" stroke-width=".6"/>
  <path d="M272.89 52.45c0-8.38 6.97-15.17 15.56-15.17 4.13 0 8.08 1.6 11 4.44 2.92 2.84 4.56 6.7 4.56 10.72 0 8.38-6.97 15.17-15.56 15.17s-15.56-6.79-15.56-15.16z" stroke="#000" stroke-width="2" stroke-linejoin="round"/>
</svg>