<svg xmlns="http://www.w3.org/2000/svg" width="100" height="100">
  <path fill="none" stroke="#000" stroke-linecap="round" d="M10 70h25v25H10zm55 0h25v25H65zM25 5h50v50H25z"/>
  <path d="M32.5 65c-12.5 0-20-7.5-20-17.5" fill="none" stroke="#000"/>
  <path d="M12.5 42.5l2.5 5h-5z"/>
  <path d="M67.5 65c12.5 0 20-7.5 20-17.5" fill="none" stroke="#000"/>
  <path d="M87.5 42.5l2.5 5h-5z"/>
  <path d="M17.5 77.5c-2.93 2.93-3.23 7.37-.3 10.3 2.93 2.93 7.68 2.93 10.61 0 2.93-2.93 2.63-7.37-.3-10.3" fill="none" stroke="#000"/>
  <path d="M18.39 82.51l-.81-4.93-4.93.81" fill="none" stroke="#000"/>
  <path d="M72.5 77.5c-2.93 2.93-3.23 7.37-.3 10.3 2.93 2.93 7.68 2.93 10.61 0 2.93-2.93 2.63-7.37-.3-10.3" fill="none" stroke="#000"/>
  <path d="M87.3 78.56l-4.9-.97-.97 4.9" fill="none" stroke="#000"/>
  <path d="m61.42 22.18v-1.09h-4.93l.8-.35c-.17-.48-.54-1.2-.85-1.74l-1.09 .41c.28 .52 .6 1.2 .76 1.68h-5.14v1.09h3.14c-.12 2.64-.4 5.56-3.37 7.07 .3 .23 .65 .61 .82 .91 2.22-1.2 3.1-3.13 3.48-5.2h4.04c-.19 2.45-.41 3.56-.74 3.84-.16 .12-.31 .14-.58 .14-.34 0-1.15-.01-2-.08 .23 .31 .38 .77 .4 1.09 .8 .05 1.58 .06 2.03 .02 .5-.05 .82-.14 1.14-.47 .48-.49 .71-1.81 .94-5.12 .04-.16 .05-.5 .05-.5h-5.1c.07-.56 .11-1.14 .14-1.7zm-20.83 4.52v-1.02h2.38v1.02zm2.38-2.86v.98h-2.38v-.98zm1.07-.95h-4.49v7.15h1.04v-2.5h2.38v1.36c0 .16-.05 .2-.22 .22-.14 .01-.67 .01-1.2-.01 .14 .25 .3 .68 .37 .96 .76 0 1.3-.01 1.66-.19 .35-.16 .46-.43 .46-.95zm3.66 5.9c0 .17-.06 .22-.25 .23-.18 .01-.83 .01-1.5-.01 .16 .28 .35 .76 .4 1.06 .9 .01 1.52-.02 1.92-.2 .41-.17 .54-.47 .54-1.06v-6.14h-1.1zm-1.36-5.8h-1.03v4.88h1.03zm.56-2.09c.34-.46 .67-.98 1-1.5l-1.21-.37c-.24 .56-.66 1.31-1.06 1.87h-3.46l.61-.23c-.2-.46-.71-1.13-1.15-1.61l-1.04 .36c.37 .44 .79 1.04 1 1.48h-2.75v1.02h10.69v-1.02z" fill="#000"/>
  <path d="m68.83 34.58-.46 .22c.65 .68 1.1 1.55 1.1 2.65 0 1.1-.45 1.97-1.1 2.65l.46 .22c.68-.69 1.19-1.65 1.19-2.87 0-1.22-.5-2.18-1.19-2.87zm-3.85 1.97v-.67h1.18c-.25 .23-.5 .46-.79 .67zm1.49 2.02h-2.26v-.5h2.26zm-2.26 .97v-.53h2.26v.53zm3.55-2.49v-.5h-1.57c.5-.43 .95-.9 1.33-1.42l-.48-.25c-.19 .27-.41 .53-.65 .77v-.26h-1.4v-.7h-.55v.7h-1.46v.49h1.46v.67h-1.99v.5h2.2c-.72 .46-1.52 .83-2.35 1.1 .1 .11 .28 .34 .34 .46 .34-.13 .68-.28 1.02-.43v2.02h.55v-.19h2.26v.16h.58v-2.56h-2.33c.29-.18 .57-.36 .84-.56zm-9.93 1.77c-.31 .35-.85 .67-1.36 .88 .11 .1 .3 .3 .38 .4 .53-.25 1.13-.65 1.49-1.1zm2.04 .33c.5 .27 1.13 .67 1.44 .92l.4-.38c-.34-.26-.98-.64-1.46-.88zm.85-2.64c-.11 .19-.27 .39-.42 .55-.18-.16-.34-.35-.47-.55zm.5-.4h.46v-.95h-2.2c-.07-.16-.17-.35-.25-.5l-.55 .12c.06 .11 .13 .25 .17 .38h-2.33v.95h.53v-.49h4.06v.43l-.01-.01-.1 .02h-1.44c-.05-.11-.1-.23-.14-.34l-.44 .1c.22 .64 .55 1.17 .97 1.59h-1.61c.33-.34 .59-.74 .77-1.21l-.31-.15-.08 .02h-.1v.01h-.59c.07-.1 .13-.19 .17-.28l-.49-.08c-.23 .43-.68 .89-1.37 1.21 .1 .07 .25 .23 .31 .34 .46-.23 .82-.52 1.1-.83h.74c-.08 .16-.19 .32-.32 .47-.11-.1-.26-.19-.38-.27l-.29 .23c.13 .09 .29 .21 .41 .32-.08 .08-.17 .16-.28 .23-.11-.12-.26-.23-.38-.33l-.34 .2c.13 .1 .28 .23 .4 .35-.32 .19-.65 .34-.98 .44 .1 .1 .22 .28 .28 .4 .16-.06 .32-.11 .47-.19v.43h1.8v.89c0 .07-.02 .08-.11 .08-.08 .01-.37 .01-.67-.01 .07 .14 .14 .32 .16 .47 .42 0 .71 0 .91-.07 .2-.07 .26-.2 .26-.46v-.9h1.69v-.47h-3.95c.34-.17 .65-.38 .94-.63v.25h2.02v-.3c.39 .32 .86 .56 1.42 .72 .07-.14 .22-.34 .33-.45-.47-.1-.89-.28-1.23-.52 .29-.3 .58-.7 .77-1.08zm-7.85-.65h1.64v2.66h.55v-3.16h-2.72v3.16h.53zm-.77 3.52c-.13-.32-.34-.71-.58-1.13 .28-.75 .47-1.63 .58-2.62l-.36-.11-.1 .02h-1.71v.53h1.57c-.08 .56-.2 1.09-.37 1.58-.25-.37-.52-.74-.77-1.07l-.42 .28c.32 .43 .66 .93 .96 1.42-.3 .71-.68 1.29-1.1 1.66 .13 .1 .32 .3 .41 .43 .4-.39 .76-.88 1.04-1.49 .16 .31 .29 .6 .38 .84zm2.27 .69c-.14 0-.19-.05-.19-.2v-1.39h-.38c.1-.39 .13-.77 .13-1.11v-1.07h-.52v1.06c0 .91-.18 2.06-1.68 2.83 .11 .08 .29 .29 .35 .41 .87-.46 1.34-1.09 1.59-1.73v1.06c0 .44 .17 .56 .59 .56h.46c.55 0 .61-.26 .67-1.19-.13-.04-.31-.11-.44-.21-.02 .82-.05 .98-.22 .98zm-5.11-2.65h-2.3v-1.38h1.9v-.55h-4.49v.55h2.01v1.38h-2.42v.55h2.42v1.85c0 .13-.05 .16-.18 .16-.14 .01-.59 .01-1.07-.01 .1 .16 .2 .42 .23 .59 .6 0 1.01-.01 1.26-.11 .25-.09 .34-.26 .34-.63v-1.85h2.3zm-9.34-1.7-.09 .02h-1.93v.49h1.76c-.1 .53-.25 1.06-.44 1.52-.31-.42-.64-.85-.92-1.22l-.37 .34c.33 .44 .7 .94 1.03 1.43-.32 .62-.73 1.13-1.17 1.45 .13 .1 .31 .31 .39 .44 .43-.34 .81-.8 1.13-1.36 .23 .35 .42 .68 .55 .95l.41-.42c-.15-.31-.39-.69-.67-1.1 .31-.69 .55-1.52 .67-2.44zm3.43 .64h-.68v-1.27h-.55v1.27h-1.64v.53h1.64v2.98c0 .11-.04 .14-.14 .14-.1 .01-.43 .01-.79-.01 .08 .16 .16 .43 .19 .58 .5 0 .82-.02 1.02-.11 .2-.09 .28-.25 .28-.59v-2.98h.68zm-1.61 2.53c-.11-.4-.42-1-.73-1.44l-.46 .22c.3 .45 .6 1.06 .7 1.46zm-8.36-2.03h.8v-.53h-.8v-1.25h-.53v1.25h-.92v.53h.85c-.19 .77-.58 1.65-.98 2.14 .08 .13 .22 .35 .28 .51 .29-.37 .56-.96 .78-1.58v2.65h.53v-2.63c.2 .29 .43 .62 .53 .82l.34-.45c-.12-.16-.65-.79-.86-1zm1.58 2.81v-.92h1.63v.92zm1.63-3.73v.88h-1.63v-.88zm-1.63 1.39h1.63v.91h-1.63zm-.53-1.92v5.12h.53v-.35h1.63v.32h.56v-5.09zm-3.55 5.29 .46-.22c-.65-.68-1.1-1.55-1.1-2.65 0-1.1 .45-1.97 1.1-2.65l-.46-.22c-.68 .69-1.19 1.65-1.19 2.87 0 1.22 .5 2.18 1.19 2.87z" fill="#000"/>
</svg>