<svg xmlns="http://www.w3.org/2000/svg" width="100" height="100">
  <path d="M10 70h25v25H10zm55 0h25v25H65zM25 5h50v50H25z" stroke-linecap="round" stroke="#000" fill="none"/>
  <path d="M30 80H20v-2.5l-5 5 5 5V85h10zm40 5v-5h10v-2.5l5 5-5 5V85zM32.5 65c-12.5 0-20-7.5-20-17.5" fill="none" stroke="#000"/>
  <path d="M12.5 42.5l2.5 5h-5z"/>
  <path d="M67.5 65c12.5 0 20-7.5 20-17.5" fill="none" stroke="#000"/>
  <path d="M87.5 42.5l2.5 5h-5z"/>
  <path d="m57.06 32.78v2.48h-3.94v-2.48zm-5.34 4.51h1.41v-.74h3.94v.62h1.47V31.43H51.72ZM58.87 24.5H56.04c-.18-.56-.5-1.31-.8-1.92l-1.34 .38c.21 .46 .43 1.04 .59 1.54H51.32v1.33h7.55zm-2.11 1.33c-.22 .88-.66 2.1-1.06 2.94h-2.37l1.17-.34c-.16-.7-.56-1.76-.98-2.56l-1.3 .34c.38 .8 .77 1.86 .91 2.56h-2.26v1.34h8.35v-1.34h-2.11c.35-.77 .75-1.73 1.1-2.61zm7.49-2.42-.22 .06H59.96v13.82h1.31v-12.48h2.21c-.38 1.23-.98 2.9-1.5 4.18 1.33 1.36 1.71 2.5 1.71 3.44 0 .54-.1 .99-.4 1.18-.16 .1-.38 .14-.62 .16-.27 0-.66 0-1.07-.05 .22 .4 .35 1.02 .37 1.41 .46 .02 .94 .02 1.33-.03 .37-.05 .72-.16 .99-.35 .54-.38 .77-1.15 .77-2.18 0-1.06-.3-2.3-1.66-3.76 .64-1.44 1.34-3.26 1.9-4.75zm-22.66 2.66v7.54h1.38v-6.18h4.38v6.14h1.44v-7.5h-3.52c.18-.43 .34-.94 .51-1.42h3.6v-1.3h-8.43v1.3H44.2c-.1 .46-.21 .98-.34 1.42zm-.96-.93v-1.39h-5.86v1.39h2.45v9.94c0 .24-.08 .3-.35 .32-.26 .02-1.07 .02-1.98-.02 .22 .4 .46 1.09 .54 1.5 1.23 0 2.05-.05 2.56-.3 .53-.24 .7-.67 .7-1.5v-9.94zm5.28 3.18h-1.46v3.06c0 1.58-.27 3.58-4.14 4.82 .32 .29 .75 .83 .93 1.15 3.9-1.54 4.67-3.95 4.67-5.95zm-.62 6.42c1.1 .77 2.53 1.9 3.18 2.66l1.01-1.12c-.7-.72-2.14-1.81-3.23-2.53z" fill="#000"/>
</svg>