<svg xmlns="http://www.w3.org/2000/svg" viewBox="0 0 275 200">
  <rect x="2" y="2" width="250" height="180" stroke="black" fill="none" stroke-width="2"/>
  <line x1="20" x2="130" y1="30" y2="30" stroke="black" stroke-width="3" stroke-dasharray="15,10,4,10"/>
  <line x1="20" x2="130" y1="70" y2="70" stroke="black" stroke-width="3"/>
  <line x1="20" x2="130" y1="110" y2="110" stroke="black" stroke-width="3" stroke-dasharray="3"/>
  <line x1="20" x2="130" y1="150" y2="150" stroke="black" stroke-width="8" stroke-dasharray="8"/>
  <path d="m228.26 26.2c-.25 .55-.62 1.31-.97 1.79h-2.66l-.44-.18c.48-.52 .92-1.06 1.32-1.61zm2.32 2.12v2.59h-2.63v-2.59zm-6.1 0h2.53v2.59h-2.53zm7.92 3.96h-.16c-.17 .61-.43 1.45-.6 1.72-.2 .3-.54 .35-1.33 .35h-4.63c-.79 0-1.2-.1-1.2-.56v-2.52h6.1v.79h.14c.34 0 .82-.2 .83-.29v-3.25c.24-.05 .43-.16 .52-.26l-1.1-.83-.5 .56h-2.89c.66-.44 1.37-1.18 1.82-1.67 .25-.01 .4-.04 .48-.13l-1.02-.91-.59 .58h-2.53c.2-.3 .38-.6 .54-.9 .31 .02 .42-.04 .47-.17l-1.46-.37c-.65 1.78-2 3.88-3.42 5.05l.14 .14c.53-.31 1.04-.71 1.52-1.15v5.3c0 1.16 .74 1.49 2.23 1.49h4.64c2.14 0 2.63-.29 2.63-.76 0-.22-.14-.26-.61-.4zm-21.84-.01c.1-.04 .19-.12 .28-.23 1.63-.52 3.05-1.06 3.83-1.34l-.02-.18c-1.33 .2-2.66 .38-3.59 .48 1.32-1 2.8-2.45 3.55-3.49 .24 .05 .4-.02 .46-.13l-1.25-.77c-.18 .38-.47 .84-.79 1.33-.85 .05-1.66 .07-2.24 .08 .86-.73 1.87-1.85 2.42-2.65 .24 .02 .38-.07 .43-.18l-1.34-.62c-.31 .9-1.22 2.6-1.94 3.25-.08 .07-.32 .12-.32 .12l.48 1.25c.07-.04 .14-.08 .2-.16 .74-.2 1.44-.43 2-.62-.71 .96-1.56 1.96-2.26 2.51-.1 .06-.37 .12-.37 .12zm4.27 .25c-1.91 .53-3.88 1.02-4.73 1.19l.56 1.26c.12-.05 .24-.17 .29-.31 1.75-.78 3.01-1.48 3.92-1.99zm4.58 1.97h-1.52v-8.08h2.66c.17 0 .29-.06 .31-.19-.42-.41-1.12-.96-1.12-.96l-.61 .79h-4.67l.1 .36h2.33v8.08h-3.28l.1 .35h7.14c.16 0 .28-.06 .31-.19-.42-.41-1.14-.97-1.14-.97zm-13.22-5.68v1.52h-4.45v-1.52zm-4.45 3.41v-1.55h4.45v1.55zm5.44-5.83h-4.3c.23-.44 .42-.88 .59-1.3 .32 .02 .43-.06 .48-.2l-1.45-.46c-.18 .64-.42 1.3-.72 1.96h-3.67l.08 .35h3.42c-.82 1.7-2.03 3.37-3.62 4.54l.12 .16c1.03-.55 1.92-1.26 2.68-2.05v6.16h.17c.48 0 .79-.24 .79-.31v-2.65h4.45v1.55c0 .18-.05 .25-.28 .25-.26 0-1.52-.08-1.52-.08v.18c.58 .08 .88 .2 1.06 .36 .17 .16 .24 .4 .28 .71 1.28-.12 1.44-.56 1.44-1.3v-5.21c.26-.05 .48-.17 .55-.28l-1.16-.88-.49 .59h-4.18l-.24-.1c.41-.54 .76-1.08 1.06-1.63h6.01c.17 0 .29-.06 .31-.19-.44-.41-1.2-.97-1.2-.97zm-14.92-.19c-.25 .55-.62 1.31-.97 1.79h-2.66l-.44-.18c.48-.52 .92-1.06 1.32-1.61zm2.32 2.12v2.59h-2.63v-2.59zm-6.1 0h2.53v2.59h-2.53zm7.92 3.96h-.16c-.17 .61-.43 1.45-.6 1.72-.2 .3-.54 .35-1.33 .35h-4.63c-.79 0-1.2-.1-1.2-.56v-2.52h6.1v.79h.14c.34 0 .82-.2 .83-.29v-3.25c.24-.05 .43-.16 .52-.26l-1.1-.83-.5 .56h-2.89c.66-.44 1.37-1.18 1.82-1.67 .25-.01 .4-.04 .48-.13l-1.02-.91-.59 .58h-2.53c.2-.3 .38-.6 .54-.9 .31 .02 .42-.04 .47-.17l-1.46-.37c-.65 1.78-2 3.88-3.42 5.05l.14 .14c.53-.31 1.04-.71 1.52-1.15v5.3c0 1.16 .74 1.49 2.23 1.49h4.64c2.14 0 2.63-.29 2.63-.76 0-.22-.14-.26-.61-.4zm-19.73-7.67c.37 .35 .83 .95 .96 1.44 .91 .61 1.67-1.15-.85-1.52zm5.63 6.12v.97h-4.33v-.97zm-4.33 3.68v-1.02h4.33v1.02zm4.33-1.37h-4.33v-1h4.33zm.92-4.07h-4.54c.23-.34 .42-.68 .61-1.04h4.55c.16 0 .28-.06 .31-.19-.4-.37-1.06-.86-1.06-.86l-.56 .7h-3.07c.16-.34 .3-.67 .43-1.03h4.4c.18 0 .3-.06 .32-.19-.43-.4-1.12-.91-1.12-.91l-.61 .76h-1.99c.5-.36 1.01-.79 1.33-1.14 .26 .01 .41-.1 .47-.23l-1.42-.38c-.18 .52-.48 1.24-.76 1.75h-5.9l.1 .35h3.96c-.12 .35-.25 .68-.4 1.03h-3.24l.1 .36h2.98c-.17 .36-.35 .7-.55 1.04h-3.46l.1 .36h3.16c-.88 1.37-2.02 2.62-3.37 3.55l.12 .17c1.1-.56 2.08-1.25 2.89-2.03v4.56h.14c.4 0 .82-.22 .82-.32v-.5h4.33v.78h.14c.32 0 .79-.22 .82-.29v-4.34c.24-.05 .42-.16 .5-.25l-1.08-.83-.5 .55h-4.15l-.3-.12c.26-.3 .5-.6 .73-.92h6.18c.18 0 .3-.06 .34-.19-.43-.4-1.13-.95-1.13-.95zm-13.82-4.09c.48 .38 1.07 1.06 1.26 1.61 .96 .55 1.6-1.31-1.15-1.7zm-6.97 7.42c.1-.04 .17-.12 .25-.23 1.46-.46 2.8-.94 3.5-1.2l-.02-.18c-1.24 .16-2.48 .31-3.35 .4 1.27-1.03 2.69-2.58 3.42-3.65 .25 .05 .41-.04 .47-.14l-1.24-.72c-.2 .44-.52 1.02-.91 1.62-.74 .02-1.43 .04-1.96 .04 .88-.8 1.86-2.02 2.39-2.89 .25 .02 .38-.08 .44-.19l-1.32-.6c-.31 .97-1.21 2.78-1.92 3.49-.08 .07-.32 .12-.32 .12l.48 1.21c.11-.04 .2-.12 .28-.24 .59-.16 1.15-.32 1.62-.47-.62 .9-1.36 1.78-1.94 2.29-.11 .07-.38 .13-.38 .13zm4.19 .13c-1.81 .54-3.74 1.02-4.62 1.18l.58 1.24c.11-.05 .22-.16 .26-.31 1.7-.77 2.94-1.43 3.83-1.94zm6.49 .17-.16-.04c-.17 .53-.43 1.13-.6 1.43-.11 .23-.2 .24-.42 .07-.6-.37-1.09-.85-1.48-1.44 .55-.48 1.09-1.04 1.57-1.68 .29 .06 .41 .02 .5-.11l-1.28-.72c-.38 .62-.8 1.2-1.25 1.7-.24-.48-.42-1.02-.55-1.57l3.46-.48c.16-.01 .26-.11 .28-.24-.48-.32-1.27-.78-1.27-.78l-.54 .88-2 .28c-.14-.64-.25-1.3-.31-1.99l3.35-.38c.16-.01 .28-.1 .3-.24-.5-.32-1.28-.79-1.28-.79l-.56 .86-1.84 .23c-.06-.85-.08-1.74-.07-2.62 .31-.05 .41-.19 .43-.35l-1.43-.16c0 1.13 .04 2.21 .13 3.23l-1.68 .19 .13 .32 1.58-.19c.07 .71 .18 1.38 .32 2.02l-2.33 .31 .13 .34 2.27-.31c.19 .79 .44 1.51 .79 2.16-1.2 1.13-2.59 1.94-4.14 2.58l.08 .2c1.68-.47 3.16-1.13 4.44-2.08 .47 .71 1.04 1.31 1.75 1.78 .59 .42 1.42 .77 1.74 .34 .13-.16 .08-.37-.3-.88zm-14.94-7.12v1.64h-5.48v-1.64zm-1.76 4.22c3.6 .01 4.18-.08 4.18-.58 0-.19-.13-.29-.53-.38l-.04-1.5h-.14c-.22 .76-.37 1.21-.52 1.44-.1 .13-.18 .18-.44 .2-.36 .02-1.31 .04-2.46 .04h-2.75c-.91 0-1.02-.07-1.02-.35v-1.1h5.48v.56h.16c.31 0 .79-.19 .8-.26v-2.11c.24-.05 .42-.16 .5-.25l-1.08-.82-.5 .54h-5.21l-1.1-.44v4.01c0 .86 .42 1.01 2 1.01zm-4.02 2.02c.59 .53 1.26 1.38 1.45 2.11 1.01 .67 1.73-1.46-1.34-2.2zm6.94-.59h-1.18v-.83c.28-.04 .38-.13 .42-.3l-1.42-.14v1.27h-7.07l.11 .36h6.96v2.69c0 .19-.06 .26-.31 .26-.31 0-2-.12-2-.12v.18c.72 .08 1.09 .22 1.33 .35 .23 .13 .3 .35 .35 .64 1.44-.13 1.63-.55 1.63-1.28v-2.71h2.63c.17 0 .29-.06 .32-.19-.44-.41-1.15-.96-1.15-.96z"/>
  <path d="m228.26 66.2c-.25 .55-.62 1.31-.97 1.79h-2.66l-.44-.18c.48-.52 .92-1.06 1.32-1.61zm2.32 2.12v2.59h-2.63v-2.59zm-6.1 0h2.53v2.59h-2.53zm7.92 3.96h-.16c-.17 .61-.43 1.45-.6 1.72-.2 .3-.54 .35-1.33 .35h-4.63c-.79 0-1.2-.1-1.2-.56v-2.52h6.1v.79h.14c.34 0 .82-.2 .83-.29v-3.25c.24-.05 .43-.16 .52-.26l-1.1-.83-.5 .56h-2.89c.66-.44 1.37-1.18 1.82-1.67 .25-.01 .4-.04 .48-.13l-1.02-.91-.59 .58h-2.53c.2-.3 .38-.6 .54-.9 .31 .02 .42-.04 .47-.17l-1.46-.37c-.65 1.78-2 3.88-3.42 5.05l.14 .14c.53-.31 1.04-.71 1.52-1.15v5.3c0 1.16 .74 1.49 2.23 1.49h4.64c2.14 0 2.63-.29 2.63-.76 0-.22-.14-.26-.61-.4zm-19.32-6.24v1.06h.14c.37 0 .74-.12 .74-.23v-.83h3.07v.95l-.72-.23c-.31 1.52-.89 3.11-1.48 4.12l.17 .11c.64-.6 1.22-1.43 1.69-2.36h3.65c.17 0 .3-.06 .32-.19-.4-.4-1.06-.96-1.06-.96l-.59 .79h-2.15c.13-.28 .25-.54 .36-.83 .25 0 .38-.1 .43-.24l-.44-.14c.41-.01 .71-.14 .71-.23v-.78h2.86c.16 0 .28-.06 .3-.19-.38-.38-1.08-.91-1.08-.91l-.59 .74h-1.49v-.84c.3-.04 .4-.16 .42-.32l-1.32-.12v1.28h-3.07v-.84c.3-.04 .41-.16 .42-.32l-1.31-.12v1.28h-3.11l.08 .36zm4.01 2.98c.43 .46 .9 1.21 .97 1.85 .88 .65 1.64-1.2-.84-1.93zm-3.52 2.35h.16c.34 0 .73-.18 .73-.29v-3.5c.31-.05 .42-.16 .44-.32l-1.33-.14zm-2.04-.47c.32 0 .71-.17 .71-.26v-2.66c.31-.05 .42-.16 .46-.34l-1.32-.12v3.4zm.64 1.14h1.56v2.66h-1.56zm4.08 0v2.66h-1.62v-2.66zm2.46 0v2.66h-1.56v-2.66zm1.04 2.66h-.1v-2.59c.18-.04 .31-.11 .37-.18l-.94-.71-.47 .47h-6.3l-1.08-.44v3.46h-1.22l.11 .35h10.7c.17 0 .29-.06 .31-.19-.34-.36-.9-.86-.9-.86zm-13.56-5.89v1.52h-4.45v-1.52zm-4.45 3.41v-1.55h4.45v1.55zm5.44-5.83h-4.3c.23-.44 .42-.88 .59-1.3 .32 .02 .43-.06 .48-.2l-1.45-.46c-.18 .64-.42 1.3-.72 1.96h-3.67l.08 .35h3.42c-.82 1.7-2.03 3.37-3.62 4.54l.12 .16c1.03-.55 1.92-1.26 2.68-2.05v6.16h.17c.48 0 .79-.24 .79-.31v-2.65h4.45v1.55c0 .18-.05 .25-.28 .25-.26 0-1.52-.08-1.52-.08v.18c.58 .08 .88 .2 1.06 .36 .17 .16 .24 .4 .28 .71 1.28-.12 1.44-.56 1.44-1.3v-5.21c.26-.05 .48-.17 .55-.28l-1.16-.88-.49 .59h-4.18l-.24-.1c.41-.54 .76-1.08 1.06-1.63h6.01c.17 0 .29-.06 .31-.19-.44-.41-1.2-.97-1.2-.97zm-14.92-.19c-.25 .55-.62 1.31-.97 1.79h-2.66l-.44-.18c.48-.52 .92-1.06 1.32-1.61zm2.32 2.12v2.59h-2.63v-2.59zm-6.1 0h2.53v2.59h-2.53zm7.92 3.96h-.16c-.17 .61-.43 1.45-.6 1.72-.2 .3-.54 .35-1.33 .35h-4.63c-.79 0-1.2-.1-1.2-.56v-2.52h6.1v.79h.14c.34 0 .82-.2 .83-.29v-3.25c.24-.05 .43-.16 .52-.26l-1.1-.83-.5 .56h-2.89c.66-.44 1.37-1.18 1.82-1.67 .25-.01 .4-.04 .48-.13l-1.02-.91-.59 .58h-2.53c.2-.3 .38-.6 .54-.9 .31 .02 .42-.04 .47-.17l-1.46-.37c-.65 1.78-2 3.88-3.42 5.05l.14 .14c.53-.31 1.04-.71 1.52-1.15v5.3c0 1.16 .74 1.49 2.23 1.49h4.64c2.14 0 2.63-.29 2.63-.76 0-.22-.14-.26-.61-.4zm-19.73-7.67c.37 .35 .83 .95 .96 1.44 .91 .61 1.67-1.15-.85-1.52zm5.63 6.12v.97h-4.33v-.97zm-4.33 3.68v-1.02h4.33v1.02zm4.33-1.37h-4.33v-1h4.33zm.92-4.07h-4.54c.23-.34 .42-.68 .61-1.04h4.55c.16 0 .28-.06 .31-.19-.4-.37-1.06-.86-1.06-.86l-.56 .7h-3.07c.16-.34 .3-.67 .43-1.03h4.4c.18 0 .3-.06 .32-.19-.43-.4-1.12-.91-1.12-.91l-.61 .76h-1.99c.5-.36 1.01-.79 1.33-1.14 .26 .01 .41-.1 .47-.23l-1.42-.38c-.18 .52-.48 1.24-.76 1.75h-5.9l.1 .35h3.96c-.12 .35-.25 .68-.4 1.03h-3.24l.1 .36h2.98c-.17 .36-.35 .7-.55 1.04h-3.46l.1 .36h3.16c-.88 1.37-2.02 2.62-3.37 3.55l.12 .17c1.1-.56 2.08-1.25 2.89-2.03v4.56h.14c.4 0 .82-.22 .82-.32v-.5h4.33v.78h.14c.32 0 .79-.22 .82-.29v-4.34c.24-.05 .42-.16 .5-.25l-1.08-.83-.5 .55h-4.15l-.3-.12c.26-.3 .5-.6 .73-.92h6.18c.18 0 .3-.06 .34-.19-.43-.4-1.13-.95-1.13-.95zm-13.82-4.09c.48 .38 1.07 1.06 1.26 1.61 .96 .55 1.6-1.31-1.15-1.7zm-6.97 7.42c.1-.04 .17-.12 .25-.23 1.46-.46 2.8-.94 3.5-1.2l-.02-.18c-1.24 .16-2.48 .31-3.35 .4 1.27-1.03 2.69-2.58 3.42-3.65 .25 .05 .41-.04 .47-.14l-1.24-.72c-.2 .44-.52 1.02-.91 1.62-.74 .02-1.43 .04-1.96 .04 .88-.8 1.86-2.02 2.39-2.89 .25 .02 .38-.08 .44-.19l-1.32-.6c-.31 .97-1.21 2.78-1.92 3.49-.08 .07-.32 .12-.32 .12l.48 1.21c.11-.04 .2-.12 .28-.24 .59-.16 1.15-.32 1.62-.47-.62 .9-1.36 1.78-1.94 2.29-.11 .07-.38 .13-.38 .13zm4.19 .13c-1.81 .54-3.74 1.02-4.62 1.18l.58 1.24c.11-.05 .22-.16 .26-.31 1.7-.77 2.94-1.43 3.83-1.94zm6.49 .17-.16-.04c-.17 .53-.43 1.13-.6 1.43-.11 .23-.2 .24-.42 .07-.6-.37-1.09-.85-1.48-1.44 .55-.48 1.09-1.04 1.57-1.68 .29 .06 .41 .02 .5-.11l-1.28-.72c-.38 .62-.8 1.2-1.25 1.7-.24-.48-.42-1.02-.55-1.57l3.46-.48c.16-.01 .26-.11 .28-.24-.48-.32-1.27-.78-1.27-.78l-.54 .88-2 .28c-.14-.64-.25-1.3-.31-1.99l3.35-.38c.16-.01 .28-.1 .3-.24-.5-.32-1.28-.79-1.28-.79l-.56 .86-1.84 .23c-.06-.85-.08-1.74-.07-2.62 .31-.05 .41-.19 .43-.35l-1.43-.16c0 1.13 .04 2.21 .13 3.23l-1.68 .19 .13 .32 1.58-.19c.07 .71 .18 1.38 .32 2.02l-2.33 .31 .13 .34 2.27-.31c.19 .79 .44 1.51 .79 2.16-1.2 1.13-2.59 1.94-4.14 2.58l.08 .2c1.68-.47 3.16-1.13 4.44-2.08 .47 .71 1.04 1.31 1.75 1.78 .59 .42 1.42 .77 1.74 .34 .13-.16 .08-.37-.3-.88zm-14.94-7.12v1.64h-5.48v-1.64zm-1.76 4.22c3.6 .01 4.18-.08 4.18-.58 0-.19-.13-.29-.53-.38l-.04-1.5h-.14c-.22 .76-.37 1.21-.52 1.44-.1 .13-.18 .18-.44 .2-.36 .02-1.31 .04-2.46 .04h-2.75c-.91 0-1.02-.07-1.02-.35v-1.1h5.48v.56h.16c.31 0 .79-.19 .8-.26v-2.11c.24-.05 .42-.16 .5-.25l-1.08-.82-.5 .54h-5.21l-1.1-.44v4.01c0 .86 .42 1.01 2 1.01zm-4.02 2.02c.59 .53 1.26 1.38 1.45 2.11 1.01 .67 1.73-1.46-1.34-2.2zm6.94-.59h-1.18v-.83c.28-.04 .38-.13 .42-.3l-1.42-.14v1.27h-7.07l.11 .36h6.96v2.69c0 .19-.06 .26-.31 .26-.31 0-2-.12-2-.12v.18c.72 .08 1.09 .22 1.33 .35 .23 .13 .3 .35 .35 .64 1.44-.13 1.63-.55 1.63-1.28v-2.71h2.63c.17 0 .29-.06 .32-.19-.44-.41-1.15-.96-1.15-.96z"/>
  <path d="m200.28 105.49v2.35h-4.98v-2.35zm-4.98 2.7h4.98v.6h.14c.32 0 .8-.19 .82-.26v-2.86c.25-.05 .43-.14 .5-.24l-1.09-.83-.49 .54h-4.79l-1.03-.43v4.3h.13c.4 0 .83-.22 .83-.31zm6.25 1.39h-9.25l.1 .35h2.82c-.16 .41-.4 1.01-.61 1.46-.19 .06-.41 .14-.55 .25l1 .74 .44-.47h5.12c-.2 1.2-.55 2.2-.89 2.44-.13 .08-.25 .11-.49 .11-.3 0-1.43-.08-2.06-.14l-.01 .19c.56 .08 1.18 .24 1.39 .4 .2 .13 .26 .37 .26 .64 .64 .01 1.12-.12 1.48-.36 .6-.41 1.07-1.64 1.28-3.13 .25-.02 .4-.08 .48-.18l-.98-.82-.53 .52h-4.99c.23-.49 .5-1.18 .71-1.64h6.72c.16 0 .29-.06 .32-.19-.43-.41-1.14-.96-1.14-.96zm-16.4-1.55c.58-.41 1.15-.97 1.64-1.66h.74c.36 .4 .7 .97 .74 1.49 .77 .56 1.48-.76-.06-1.49h2.75c.17 0 .29-.06 .31-.19-.4-.38-1.07-.89-1.07-.89l-.59 .72h-2.58c.18-.26 .35-.55 .5-.84 .25 .02 .41-.08 .46-.2l-1.31-.49c-.4 1.32-1.08 2.63-1.72 3.43zm-2.42-1.66c.29 .4 .55 .97 .59 1.46 .71 .6 1.51-.68-.02-1.46h2.27c.16 0 .28-.06 .31-.19-.37-.36-.96-.84-.96-.84l-.53 .67h-1.94c.16-.26 .31-.55 .44-.84 .26 .01 .41-.08 .47-.22l-1.33-.49c-.41 1.5-1.15 2.9-1.9 3.78l.17 .12c.71-.47 1.37-1.16 1.92-1.99zm.17 1.4c-.67 1.75-1.75 3.42-2.75 4.4l.16 .14c.6-.38 1.19-.89 1.74-1.48v4.69h.18c.36 0 .74-.22 .76-.28v-4.9c.2-.04 .34-.12 .37-.23l-.55-.2c.34-.44 .64-.91 .91-1.42 .28 .04 .41-.05 .47-.18zm1.84 3.05c.5 .58 1.06 1.48 1.14 2.22 .92 .77 1.79-1.26-1.01-2.3zm5.09-1.12h-.62V108.5c.28-.04 .4-.14 .42-.31l-1.37-.14v1.67h-4.43l.1 .36h4.33v4.09c0 .18-.06 .25-.3 .25-.28 0-1.7-.1-1.7-.1v.18c.61 .08 .95 .22 1.15 .36 .19 .17 .26 .38 .31 .7 1.32-.13 1.49-.56 1.49-1.32v-4.16h1.87c.16 0 .28-.06 .3-.19-.36-.38-1-.91-1-.91zm-19.11-4.98h-.02l-1.32 4.04h-4.21v.02l3.41 2.47-1.33 4.06h.02l3.44-2.5 3.44 2.5h.02l-1.33-4.06 3.41-2.47v-.02h-4.21zm-12.42 4.09v1.52h-4.45v-1.52zm-4.45 3.41v-1.55h4.45v1.55zm5.44-5.83h-4.3c.23-.44 .42-.88 .59-1.3 .32 .02 .43-.06 .48-.2l-1.45-.46c-.18 .64-.42 1.3-.72 1.96h-3.67l.08 .35h3.42c-.82 1.7-2.03 3.37-3.62 4.54l.12 .16c1.03-.55 1.92-1.26 2.68-2.05v6.16h.17c.48 0 .79-.24 .79-.31v-2.65h4.45v1.55c0 .18-.05 .25-.28 .25-.26 0-1.52-.08-1.52-.08v.18c.58 .08 .88 .2 1.06 .36 .17 .16 .24 .4 .28 .71 1.28-.12 1.44-.56 1.44-1.3v-5.21c.26-.05 .48-.17 .55-.28l-1.16-.88-.49 .59h-4.18l-.24-.1c.41-.54 .76-1.08 1.06-1.63h6.01c.17 0 .29-.06 .31-.19-.44-.41-1.2-.97-1.2-.97z"/>
  <path d="m192.63 144.52c.42 .29 .89 .8 1.03 1.27 .98 .54 1.6-1.34-.94-1.37zm6.16 1.73c.18 0 .3-.06 .32-.19-.44-.42-1.16-.98-1.16-.98l-.64 .83h-8.93l.1 .35zm-7.27 2.52v-1.28h4.52v1.28zm4.68 .83c.31 0 .8-.18 .82-.25v-1.68c.23-.05 .42-.16 .5-.25l-1.1-.8-.49 .53h-4.33l-1.02-.43v3.01h.13c.38 0 .82-.2 .82-.29v-.31h4.52v.48zm2.28 3.32h-.14c-.14 .56-.29 1.06-.37 1.22-.05 .1-.11 .12-.22 .13h-.73-.82c-.32 0-.35-.04-.35-.17v-2.09c.2-.02 .32-.08 .41-.18l-.97-.83-.52 .55h-2.12l-1.21-.48v1.03c0 1.02-.47 2.3-2.94 3.25l.07 .17c3.49-.82 3.9-2.44 3.9-3.42v-.2h2.42v2.39c0 .64 .14 .84 1.06 .84h.98c1.52 0 1.92-.17 1.92-.56 0-.18-.06-.29-.34-.4zm-.95-2.76h-7.78c-.04-.2-.1-.42-.18-.64l-.19 .01c.07 .71-.3 1.34-.72 1.6-.29 .14-.48 .41-.37 .71 .13 .32 .58 .36 .9 .16 .36-.22 .66-.73 .61-1.49h7.78c-.1 .46-.25 1.03-.38 1.4l.14 .1c.42-.35 .97-.92 1.28-1.32 .23-.01 .37-.04 .46-.13l-1.01-.95zm-19.33-5.45c.46 .41 .92 1.14 .98 1.75 .9 .68 1.74-1.22-.86-1.85zm1.42 3.74h4.16v1.51h-4.16zm4.99 3.08h-2.47v-1.22h1.64v.44h.16c.31 0 .78-.19 .79-.26v-1.9c.22-.05 .38-.14 .46-.23l-1.03-.77-.48 .5h-3.98l-1.01-.42v3.23h.13c.38 0 .8-.22 .8-.3v-.3h1.57v1.22h-2.42l-1.02-.43v3.91h.13c.4 0 .82-.2 .82-.3v-2.83h2.5v3.61h.16c.48 0 .79-.28 .79-.35v-3.26h2.58v1.8c0 .16-.05 .22-.25 .22-.28 0-1.37-.06-1.37-.06v.17c.5 .06 .79 .19 .96 .32 .16 .16 .2 .38 .24 .67 1.22-.12 1.38-.54 1.38-1.21v-1.73c.23-.04 .42-.16 .49-.24l-1.12-.82zm1.58-5.42-.58 .59h-2.2c.59-.43 1.2-1 1.6-1.4 .25 .04 .42-.05 .48-.18l-1.4-.53c-.25 .62-.66 1.49-1.03 2.11h-.9v-1.78c.29-.05 .4-.16 .41-.32l-1.38-.13v2.23h-3.28c-.04-.19-.07-.41-.14-.62l-.19 .01c.02 .76-.43 1.46-.89 1.74-.29 .14-.47 .42-.35 .73 .13 .34 .59 .35 .92 .12 .36-.24 .7-.8 .67-1.63h7.72c-.12 .41-.3 .9-.44 1.21l.14 .1c.47-.29 1.08-.76 1.44-1.13 .23-.01 .35-.04 .44-.12zm-14.55 4.67q0 .18-.04 .41-.04 .23-.1 .49-.06 .25-.14 .52-.08 .27-.16 .52-.09 .25-.18 .46-.09 .21-.17 .36-.04 .06-.11 .12-.07 .06-.15 .13-.08 .06-.13 .13-.06 .06-.06 .12-.05 .01-.15 .03-.1 .02-.21 .05-.11 .03-.2 .07-.09 .04-.11 .07-.06 .12-.08 .16-.01 .04-.03 .05-.02 .01-.07 .01-.05-.01-.19 .02-.05 .01-.13 .04-.08 .02-.16 .05-.08 .02-.16 .04-.08 .02-.12 .02-.13 0-.25-.04-.12-.04-.25-.04-.08 0-.15 .02-.22 .08-.42 .12-.19 .04-.43 .04l-.83-.11q-.09 .02-.19 .03-.09 .01-.19 .01-.12 0-.23-.01-.11-.01-.23-.03-.02-.09-.06-.16-.04-.08-.07-.16-.04-.08-.06-.16-.03-.09-.03-.18 0-.15 .08-.22 .08-.07 .19-.09 .12-.03 .25-.04 .13-.02 .25-.07 .12-.05 .19-.16 .08-.11 .08-.33 0-.13-.02-.27-.02-.13-.05-.27-.02-.14-.05-.28-.02-.13-.02-.27 0-.1 .02-.19 .02-.1 .02-.2 0-.18-.03-.36-.02-.18-.02-.36 0-.21 .02-.42 .02-.21 .02-.42 0-.2-.04-.39-.04-.19-.04-.4 0-.11 .01-.22 .01-.11 .01-.22 0-.13-.01-.25-.01-.12-.05-.25-.04-.15-.05-.29-.01-.14-.04-.25-.03-.12-.11-.2-.08-.09-.28-.13-.06-.01-.1-.04-.03-.03-.06-.05-.03-.03-.08-.05-.04-.02-.13-.04-.26-.04-.26-.29 0-.14 .05-.25 .05-.11 .13-.2 .08-.09 .18-.16 .11-.08 .21-.15 .15-.12 .29-.14 .13-.03 .29-.03h.25q.17 0 .33-.01 .17-.02 .34-.02 .1 0 .2 .01 .11 .01 .21 .04 .05 .02 .1 .04 .05 .02 .11 .02 .08 0 .14-.05 .06-.05 .11-.05 .01 0 .01 .01 0 .01-.01 .03 0 .01 0 .02 0 .04 .05 .04 .03 0 .04-.04 .02-.04 .07-.05 .04 .02 .06 .04 .02 .02 .04 .04 .02 .02 .05 .03 .04 .01 .09 .01 .12 0 .25-.02 .12-.02 .25-.02 .16 0 .29 .05 .13 .05 .25 .13 .12 .08 .23 .18 .11 .1 .22 .19 .08 .07 .16 .11 .09 .04 .16 .08 .08 .04 .15 .09 .07 .05 .12 .16 .06 .12 .13 .24 .08 .11 .16 .22 .08 .11 .16 .22 .08 .11 .13 .24 .15 .33 .21 .7 .06 .36 .13 .72 .03 .15 .06 .31 .04 .15 .04 .3 0 .08-.03 .16-.03 .08-.03 .16 0 .05 .02 .09 .02 .04 .04 .08 .02 .04 .04 .09 .02 .05 .02 .12zm-.98-.39q0-.23-.06-.45-.06-.22-.2-.4 .06-.06 .08-.15 .02-.09 .02-.17 0-.09-.01-.18-.01-.09-.01-.17 0-.05-.04-.08-.03-.04-.07-.06-.04-.04-.08-.06-.04-.04-.06-.08-.02-.06-.04-.1-.01-.05-.01-.09-.01-.04-.02-.09-.02-.05-.06-.11-.03-.05-.05-.09-.02-.05-.02-.11 0-.06 .02-.12-.02-.05-.08-.08-.05-.04-.12-.05-.07-.02-.16-.04-.09 0-.19-.05-.09-.05-.2-.12-.11-.06-.22-.12-.11-.05-.22-.05-.17 0-.33 .03-.16 .03-.33 .05-.13 .02-.28 .02-.15 0-.29 .03-.13 .03-.22 .11-.09 .08-.09 .25 0 .21 .02 .42 .03 .21 .03 .43 0 .46-.04 .93-.04 .46-.04 .93 0 .22 .02 .43 .02 .21 .02 .43 0 .29-.05 .57-.04 .28-.04 .57 0 .12 0 .25 0 .13 .02 .26 .02 .12 .09 .22 .06 .1 .19 .15 .18 .06 .36 .13 .18 .06 .38 .06 .12 0 .23-.05 .11-.06 .23-.09 .08-.02 .17-.04 .1-.02 .19-.05 .09-.03 .18-.07 .09-.05 .15-.11 .09-.1 .17-.18 .08-.08 .23-.11 .07-.01 .09-.05 .02-.04 .03-.09 .01-.05 .03-.11 .02-.06 .08-.1 .09-.07 .14-.16 .05-.09 .08-.2 .02-.11 .04-.21 .02-.11 .05-.22 .06-.23 .15-.47 .09-.24 .09-.49 0-.06-.03-.11-.03-.05-.03-.12 0-.04 .01-.04 .02-.01 .04-.02 .02-.02 .03-.05 .02-.03 .02-.11zm-6.59-1.69q0 .02-.03 .09-.03 .07-.07 .15-.04 .08-.08 .15-.04 .07-.06 .09l.01 .01q-.01 0-.02 .01h-.03q-.02 .01-.05 .01-.02 0-.05 0l.02-.01q-.13-.01-.25-.05-.11-.05-.18-.17-.01-.02-.04-.08-.02-.06-.05-.13-.02-.07-.04-.13-.01-.06-.01-.09 0-.05 .01-.1 .01-.05 .01-.1 0-.18-.04-.36-.04-.18-.04-.36 0-.12 .03-.23 .03-.11 .11-.21h-.03q-.07 0-.11-.04-.04-.05-.13-.05-.22 0-.43 .05-.21 .05-.45 .05-.09 0-.19 0-.09-.01-.19-.01-.18 0-.36 .04-.18 .04-.34 .04-.02 0-.02-.01 0-.01 .04-.03 .04-.02 .04-.04 0-.02-.04-.02-.04 0-.05 0-.05 0-.08 .05-.03 .05-.09 .06-.09 .02-.19 .02-.1 0-.19 0-.06 0-.17-.01-.11-.01-.22-.02-.11-.02-.21-.06-.09-.05-.1-.13-.06 .02-.09 .06-.02 .04-.04 .09-.01 .05-.04 .09-.03 .04-.12 .04-.16 .01-.21 .11-.05 .09-.05 .21 0 .06 .01 .13 .01 .06 .01 .13 0 .23-.01 .47-.01 .23-.01 .46 0 .1 0 .27 .01 .16 .02 .33 .02 .16 .06 .29 .04 .12 .12 .14 .05 .01 .1 .02 .05 0 .11 0 .21 0 .4-.05 .2-.05 .4-.05 .08 0 .15 .02 .08 .02 .15 .02 .11 0 .17-.11 .06-.11 .09-.25 .03-.15 .04-.29 .01-.15 .01-.22 0-.15-.01-.29-.01-.15-.01-.29h.04q.15 0 .28 .05 .13 .05 .27 .05 .06 0 .09-.01 0 .12 .04 .23 .04 .12 .04 .24 0 .15-.16 .19 .05 .08 .08 .16 .03 .08 .03 .17 0 .06-.01 .13-.01 .06-.01 .12 0 .06 .04 .09 .04 .03 .04 .07 0 .07-.06 .18-.05 .11-.05 .22 0 .13 .02 .27 .02 .14 .05 .29 .03 .15 .05 .31 .02 .15 .02 .31 0 .09-.01 .19-.01 .1-.04 .19-.03 .09-.09 .16-.05 .08-.14 .13-.11-.01-.19-.06-.08-.06-.13-.13-.05-.08-.08-.18-.02-.1-.04-.2-.02-.15-.02-.28 0-.13-.06-.22-.05-.09-.21-.15-.15-.05-.48-.05-.09 0-.27 .02-.17 .02-.34 .06-.17 .04-.3 .12-.12 .08-.12 .21 0 .07 .01 .14 .02 .06 .02 .13 0 .06-.01 .12-.01 .06-.01 .12 0 .16 .02 .32 .02 .15 .02 .31 0 .17-.05 .33-.04 .16-.04 .33 0 .19 .09 .3 .09 .11 .23 .16 .14 .05 .3 .07 .16 .02 .3 .02 .28 0 .56-.04 .28-.04 .56-.04 .18 0 .35 .02 .18 .02 .35 .02 .13 0 .3-.01 .16-.01 .31-.06 .15-.05 .26-.13 .11-.09 .14-.26 .01-.05 .03-.06 .03-.02 .06-.04 .04-.02 .06-.04 .02-.02 .02-.06 0-.05-.04-.11-.04-.06-.05-.12-.02-.11-.03-.22 0-.12 0-.23 0-.18 .05-.3 .06-.13 .06-.29 0-.05-.01-.09 0-.04 0-.09 0-.04 .05-.07 .05-.04 .12-.06 .07-.03 .14-.05 .07-.02 .11-.02 .15 0 .24 .11 .09 .1 .14 .25 .05 .15 .07 .3 .02 .16 .02 .27 0 .18-.03 .41-.03 .23-.08 .47-.05 .24-.11 .47-.06 .22-.13 .39-.04 .08-.07 .12-.03 .04-.07 .07-.04 .02-.08 .05-.04 .02-.09 .08-.05 .05-.18 .07-.13 .02-.28 .02-.11 0-.21-.01-.1-.01-.15-.01-.19 0-.32 .05-.12 .05-.22 .05-.08 0-.1-.03-.02-.04-.07-.04-.04 0-.08 .04-.04 .04-.11 .04-.07 0-.15 0-.07-.01-.15-.01-.44 0-.87 .02-.43 .03-.87 .04-.3 .01-.59 .07-.29 .06-.59 .06-.11 0-.24-.02-.13-.02-.26-.07-.12-.05-.2-.14-.08-.09-.08-.23 0-.13 .09-.25 .09-.12 .22-.22 .13-.1 .28-.18 .14-.09 .23-.16-.01-.05-.01-.09 0-.04 0-.08 0-.09 0-.18 .01-.09 .04-.18 .01-.05 .06-.12 .05-.08 .05-.13 0-.04-.02-.08-.01-.04-.02-.08-.06-.16-.09-.28-.02-.12-.02-.3 0-.11 0-.18 .01-.08 .01-.15 .01-.08 .03-.15 .02-.08 .06-.18-.02-.04-.05-.12-.03-.08-.03-.13l.08-.83q-.01-.02-.01-.06 0-.05 .02-.11 .02-.05 .02-.11 0-.13-.05-.26-.05-.13-.05-.27 0-.05 .02-.11 .02-.06 .05-.14 .03-.08 .05-.16 .02-.09 .02-.2 0-.08-.04-.14-.04-.06-.04-.13 0-.07 .04-.14 .04-.07 .04-.15 0-.12-.05-.22-.04-.11-.09-.21-.07-.15-.11-.23-.04-.09-.09-.15-.05-.06-.15-.08-.09-.03-.26-.04-.08-.01-.16-.05-.07-.05-.13-.12-.05-.07-.09-.15-.04-.08-.04-.16 0-.11 .09-.18 .09-.08 .24-.12 .15-.05 .33-.07 .18-.03 .35-.04 .18-.02 .32-.02 .15-.01 .22-.02 .12-.02 .23-.02 .11-.01 .23-.01 .23 0 .46 .02 .23 .01 .46 .01 .25 0 .48-.05 .24-.05 .49-.05 .22 0 .44 .05 .22 .05 .43 .05 .21 0 .4-.05 .2-.05 .4-.05 .09 0 .18 .02 .13 .14 .23 .23 .11 .09 .19 .19 .08 .09 .13 .22 .05 .13 .07 .34 .01 .08 .01 .19 0 .11 .01 .21 .01 .1 .03 .18 .03 .08 .09 .1 0 .08-.08 .08 .01 .08 .04 .17 .03 .08 .06 .17 .03 .08 .05 .17 .02 .08 .02 .16zm-5.07 1.44q-.04 0-.06 .01-.03 .01-.04 .05 .22 .13 .35 .25 .13 .11 .21 .18 .08 .07 .11 .08 .04 .01 .07-.08 .05-.11-.02-.2-.06-.09-.17-.16-.11-.06-.23-.1-.12-.04-.21-.04zm-2.23 2.78q0 .08-.03 .14-.03 .06-.03 .14 0 .06 .02 .12 .02 .05 .02 .11 0 .05-.02 .15-.02 .1-.05 .21-.02 .11-.05 .21-.03 .09-.05 .13h-.17q-.02 .12-.08 .25-.22 .11-.38 .13-.16 .03-.34 .03-.08 0-.18 0-.09-.01-.19-.01-.19 0-.34 .02-.15 .02-.32 .12-.05 .02-.11 .02-.11 0-.22-.02-.11-.02-.21-.05-.11-.03-.22-.05-.11-.02-.22-.02-.16 0-.32-.03-.16-.04-.32-.04-.12 0-.23 .02-.11 .02-.23 .04-.11 .03-.22 .05-.11 .02-.23 .02-.11 0-.21-.02-.1-.02-.21-.02-.19 0-.37 .03-.18 .04-.37 .04-.25 0-.41-.12-.16-.12-.16-.39 0-.11 .05-.19 .13-.25 .28-.35 .15-.11 .28-.16 .13-.05 .25-.06 .12-.02 .21-.08 .09-.06 .13-.2 .05-.14 .05-.43 0-.35-.06-.68-.05-.34-.05-.69 0-.17 .04-.33 .04-.16 .04-.33 0-.29-.03-.57-.02-.29-.02-.57 0-.2-.05-.39-.05-.19-.05-.39 0-.12 .02-.22 .02-.11 .02-.22 0-.17-.02-.34-.02-.17-.03-.34-.01-.09-.03-.18-.02-.09-.06-.16-.05-.07-.12-.11-.08-.04-.19-.04-.11 0-.21 .04-.1 .04-.21 .04-.06 0-.12-.01-.06-.01-.12-.03-.03-.04-.05-.09-.02-.05-.04-.1-.02-.05-.06-.09-.04-.04-.1-.05 .06-.09 .11-.23 .05-.14 .12-.27 .07-.13 .16-.22 .09-.09 .23-.09 .11 0 .21 .05 .1 .05 .21 .05 .14 0 .27-.06 .13-.06 .28-.06 .12 0 .21 .08 .11-.03 .19-.03 .06 0 .11 .02 .06 .02 .12 .02 .18 0 .34-.05 .17-.05 .35-.05 .14 0 .27 .04 .13 .04 .25 .1 .12 .05 .25 .11 .12 .06 .26 .09 .01 .03 .01 .05 .01 .02 .01 .05v.02l-.01 .02q-.01 .11-.04 .22-.04 .11-.05 .21-.03 .14-.11 .18-.07 .04-.18 .04-.05 0-.1 0-.05-.01-.1-.01-.22 0-.43 .04-.21 .03-.42 .09-.06 .11-.06 .25 0 .11 .02 .21 .02 .11 .04 .21-.06-.01-.12-.03-.05-.02-.11-.02-.05 0-.09 .05-.04 .05-.04 .1 0 .04 .03 .07 .03 .03 .07 .05 .04 .02 .09 .02 .05 .01 .08 .01l.01 .12q0 .22-.05 .43-.05 .21-.05 .42 0 .06 .01 .13 .02 .06 .02 .13 0 .08-.05 .09-.04 .02-.09 .02-.05 0-.09 .01-.04 .01-.04 .05 0 .02 .01 .03-.02 .05-.02 .08 0 .05 .04 .06 .04 .01 .09 .02 .05 0 .09 .01 .04 .01 .04 .05 0 .06-.02 .12-.02 .05-.02 .11 0 .16 .06 .3 .06 .15 .06 .3 0 .14-.04 .28-.04 .13-.04 .28 0 .09 .02 .18 .03 .08 .06 .17 .04 .08 .06 .17 .03 .08 .03 .17 0 .12-.04 .24-.04 .12-.04 .24 0 .03 .01 .09 .02 .13 .04 .32 .02 .18 .08 .35 .05 .16 .16 .28 .11 .12 .3 .12 .18 0 .35-.05 .17-.06 .35-.06 .11 0 .22 .03 .11 .02 .22 .06 .11 .04 .21 .06 .11 .02 .23 .02 .18 0 .35-.04 .18-.04 .35-.07 .25-.05 .37-.16 .12-.12 .12-.39 0-.26-.06-.51-.06-.25-.06-.52 0-.16 .05-.3 .05-.15 .15-.27 .14-.05 .28-.05 .26 0 .36 .17 .11 .16 .11 .39 0 .1-.04 .14-.04 .04-.04 .07 0 .01 .02 .04 .02 .02 .05 .05 .03 .03 .05 .07 .02 .04 .02 .09 0 .04-.04 .06 0 .06-.01 .16-.01 .09-.01 .19 0 .09 .01 .18 .01 .08 .03 .12z"/>
</svg>